<?xml version="1.0" encoding="UTF-8"?>
<svg width="512px" height="512px" viewBox="0 0 512 512" version="1.1" xmlns="http://www.w3.org/2000/svg" xmlns:xlink="http://www.w3.org/1999/xlink">
    <title>apps/512/deepin-activation-alert</title>
    <defs>
        <filter x="-8.6%" y="-8.6%" width="117.3%" height="117.3%" filterUnits="objectBoundingBox" id="filter-1">
            <feOffset dx="0" dy="0" in="SourceAlpha" result="shadowOffsetOuter1"></feOffset>
            <feGaussianBlur stdDeviation="10.5" in="shadowOffsetOuter1" result="shadowBlurOuter1"></feGaussianBlur>
            <feColorMatrix values="0 0 0 0 0   0 0 0 0 0   0 0 0 0 0  0 0 0 0.2 0" type="matrix" in="shadowBlurOuter1" result="shadowMatrixOuter1"></feColorMatrix>
            <feMerge>
                <feMergeNode in="shadowMatrixOuter1"></feMergeNode>
                <feMergeNode in="SourceGraphic"></feMergeNode>
            </feMerge>
        </filter>
        <linearGradient x1="104.803606%" y1="104.696702%" x2="-4.64237098%" y2="-6.3378074%" id="linearGradient-2">
            <stop stop-color="#0050FF" offset="0%"></stop>
            <stop stop-color="#38F8FF" offset="100%"></stop>
        </linearGradient>
        <rect id="path-3" x="0" y="0" width="469.333333" height="469.333333" rx="85.1612903"></rect>
        <filter x="-3.4%" y="-3.4%" width="106.8%" height="106.8%" filterUnits="objectBoundingBox" id="filter-5">
            <feGaussianBlur stdDeviation="10.5" in="SourceAlpha" result="shadowBlurInner1"></feGaussianBlur>
            <feOffset dx="0" dy="-11" in="shadowBlurInner1" result="shadowOffsetInner1"></feOffset>
            <feComposite in="shadowOffsetInner1" in2="SourceAlpha" operator="arithmetic" k2="-1" k3="1" result="shadowInnerInner1"></feComposite>
            <feColorMatrix values="0 0 0 0 0   0 0 0 0 0.403702446   0 0 0 0 1  0 0 0 1 0" type="matrix" in="shadowInnerInner1" result="shadowMatrixInner1"></feColorMatrix>
            <feGaussianBlur stdDeviation="10.5" in="SourceAlpha" result="shadowBlurInner2"></feGaussianBlur>
            <feOffset dx="0" dy="11" in="shadowBlurInner2" result="shadowOffsetInner2"></feOffset>
            <feComposite in="shadowOffsetInner2" in2="SourceAlpha" operator="arithmetic" k2="-1" k3="1" result="shadowInnerInner2"></feComposite>
            <feColorMatrix values="0 0 0 0 0.261736614   0 0 0 0 0.837627193   0 0 0 0 1  0 0 0 1 0" type="matrix" in="shadowInnerInner2" result="shadowMatrixInner2"></feColorMatrix>
            <feMerge>
                <feMergeNode in="shadowMatrixInner1"></feMergeNode>
                <feMergeNode in="shadowMatrixInner2"></feMergeNode>
            </feMerge>
        </filter>
        <linearGradient x1="50%" y1="100%" x2="50%" y2="-14.4331505%" id="linearGradient-6">
            <stop stop-color="#0050FF" offset="0%"></stop>
            <stop stop-color="#38F8FF" stop-opacity="0" offset="100%"></stop>
        </linearGradient>
        <rect id="path-7" x="-1.42108547e-13" y="3.12638804e-13" width="469.333333" height="469.333333" rx="85.1612903"></rect>
        <linearGradient x1="50%" y1="0%" x2="50%" y2="100%" id="linearGradient-9">
            <stop stop-color="#C7EEFF" offset="0%"></stop>
            <stop stop-color="#2EBEFF" offset="100%"></stop>
        </linearGradient>
        <path d="M74.6666667,74.4598524 L394.666667,74.4598524 C424.121853,74.4598524 448,98.3379991 448,127.793186 L448,352 C448,399.128299 409.794965,437.333333 362.666667,437.333333 L106.666667,437.333333 C59.538368,437.333333 21.3333333,399.128299 21.3333333,352 L21.3333333,127.793186 C21.3333333,98.3379991 45.21148,74.4598524 74.6666667,74.4598524 Z" id="path-10"></path>
        <filter x="-6.2%" y="-7.3%" width="112.4%" height="114.6%" filterUnits="objectBoundingBox" id="filter-11">
            <feGaussianBlur stdDeviation="26.5" in="SourceAlpha" result="shadowBlurInner1"></feGaussianBlur>
            <feOffset dx="0" dy="0" in="shadowBlurInner1" result="shadowOffsetInner1"></feOffset>
            <feComposite in="shadowOffsetInner1" in2="SourceAlpha" operator="arithmetic" k2="-1" k3="1" result="shadowInnerInner1"></feComposite>
            <feColorMatrix values="0 0 0 0 0.541209747   0 0 0 0 0.850108006   0 0 0 0 1  0 0 0 1 0" type="matrix" in="shadowInnerInner1"></feColorMatrix>
        </filter>
        <linearGradient x1="50%" y1="7.18037923%" x2="50%" y2="105.509186%" id="linearGradient-12">
            <stop stop-color="#94DBFF" offset="0%"></stop>
            <stop stop-color="#0FB5FF" offset="100%"></stop>
        </linearGradient>
        <radialGradient cx="27.7048929%" cy="10.6803319%" fx="27.7048929%" fy="10.6803319%" r="96.0368192%" gradientTransform="translate(0.277049,0.106803),scale(1.000000,0.998810),rotate(50.372598),translate(-0.277049,-0.106803)" id="radialGradient-13">
            <stop stop-color="#FFFFFF" stop-opacity="0.978986833" offset="0%"></stop>
            <stop stop-color="#FFFFFF" stop-opacity="0.64256276" offset="100%"></stop>
        </radialGradient>
        <path d="M194.134317,254.402292 C202.38238,254.643573 209.628272,256.579422 216.256796,260.307597 L227.736152,266.764268 L234.192511,278.243312 C237.948084,284.920093 239.884556,292.222958 240.103109,300.546363 C239.852489,307.624759 238.630519,313.732117 236.374,319.192221 C234.181303,324.498839 230.97554,329.218289 226.573646,333.620493 C222.171753,338.022698 217.452303,341.228462 212.145374,343.420847 C206.74598,345.652148 200.713652,346.871938 193.73457,347.140927 C186.879397,346.873495 180.941713,345.663044 175.611434,343.4498 C170.328789,341.25617 165.61183,338.041066 161.191257,333.620493 C156.789052,329.218289 153.583288,324.498839 151.390903,319.192221 C149.158668,313.790647 147.938878,307.75614 147.670511,300.773633 C147.938255,293.805759 149.153687,287.795536 151.376271,282.429143 C153.551533,277.177941 156.731145,272.515465 161.097235,268.176149 C165.560149,263.740321 170.335016,260.495952 175.695182,258.257179 C181.124775,255.988829 187.165821,254.725141 194.134317,254.402292 M340.674493,129.230555 C334.239304,129.230555 328.532627,131.618455 323.551349,136.391142 L237.624301,222.318191 C224.339854,214.846273 209.70735,211.007576 193.726787,210.798985 C168.406327,211.630236 147.285707,220.450211 130.371155,237.262025 C113.456602,254.073839 104.686439,275.244271 104.063779,300.773322 C104.686439,326.302373 113.456602,347.525731 130.371155,364.440284 C147.285707,381.354837 168.406327,390.125 193.726787,390.747659 C219.255837,390.125 240.479196,381.354837 257.393748,364.440284 C274.308301,347.525731 283.078464,326.302373 283.701124,300.773322 C283.492533,284.792759 279.653835,270.160254 272.181918,256.875808 L293.97501,235.394046 L323.551349,264.970385 C328.532627,269.743072 334.239304,272.130973 340.674493,272.130973 C347.109682,272.130973 352.816359,269.69326 357.797637,264.81472 C362.778915,259.936181 365.269554,254.229504 365.269554,247.691576 C365.269554,241.153649 362.881654,235.394046 358.108967,230.412768 L328.532627,200.836429 L358.108967,171.260089 C362.881654,166.07022 365.269554,160.260804 365.269554,153.825616 C365.269554,147.390427 362.778915,141.68375 357.797637,136.702472 C352.816359,131.721194 347.109682,129.230555 340.674493,129.230555 Z M193.882452,259.989107 C199.383651,259.989107 204.570407,261.025835 209.448946,263.102406 C214.327485,265.178976 218.735916,268.13661 222.680466,271.975308 C226.625016,275.814005 229.632462,280.22555 231.709033,285.206828 C233.785603,290.188106 234.822332,295.377975 234.822332,300.773322 C234.822332,306.168669 233.785603,311.358538 231.709033,316.339816 C229.632462,321.321095 226.625016,325.782452 222.680466,329.727002 C218.735916,333.671551 214.327485,336.629185 209.448946,338.599903 C204.570407,340.570621 199.383651,341.557537 193.882452,341.557537 C188.381252,341.557537 183.194497,340.570621 178.315957,338.599903 C173.437418,336.629185 169.028987,333.671551 165.084437,329.727002 C161.139887,325.782452 158.132441,321.321095 156.05587,316.339816 C153.9793,311.358538 152.942571,306.168669 152.942571,300.773322 C152.942571,295.377975 153.9793,290.188106 156.05587,285.206828 C158.132441,280.22555 161.139887,275.814005 165.084437,271.975308 C169.028987,268.13661 173.437418,265.178976 178.315957,263.102406 C183.194497,261.025835 188.381252,259.989107 193.882452,259.989107 M193.882452,247.535912 C186.721241,247.535912 179.84303,248.917905 173.438663,251.643909 C167.1663,254.313874 161.43316,258.151638 156.399267,263.050725 C151.264503,268.047881 147.28166,273.889986 144.561571,280.415149 C141.859227,286.897038 140.489376,293.746607 140.489376,300.773322 C140.489376,307.800038 141.859227,314.649606 144.561571,321.131495 C147.257999,327.599373 151.200058,333.453932 156.278783,338.532967 C161.395178,343.649363 167.240085,347.556553 173.651613,350.146817 C179.998695,352.710619 186.805612,354.010733 193.882452,354.010733 C200.959291,354.010733 207.766208,352.710619 214.11329,350.146506 C220.524818,347.556553 226.369725,343.649051 231.486121,338.532656 C236.564845,333.453932 240.507215,327.599373 243.203332,321.131183 C245.905676,314.649606 247.275527,307.800038 247.275527,300.773011 C247.275527,293.745984 245.905676,286.896726 243.203332,280.414838 C240.483554,273.889675 236.500711,268.047258 231.365947,263.050414 C226.332054,258.151327 220.598914,254.313563 214.326551,251.643598 C207.921873,248.917905 201.043662,247.535912 193.882452,247.535912 L193.882452,247.535912 Z" id="path-14"></path>
        <filter x="-8.4%" y="-4.2%" width="116.8%" height="116.8%" filterUnits="objectBoundingBox" id="filter-15">
            <feOffset dx="0" dy="11" in="SourceAlpha" result="shadowOffsetOuter1"></feOffset>
            <feGaussianBlur stdDeviation="5.5" in="shadowOffsetOuter1" result="shadowBlurOuter1"></feGaussianBlur>
            <feComposite in="shadowBlurOuter1" in2="SourceAlpha" operator="out" result="shadowBlurOuter1"></feComposite>
            <feColorMatrix values="0 0 0 0 0   0 0 0 0 0   0 0 0 0 0  0 0 0 0.150201117 0" type="matrix" in="shadowBlurOuter1"></feColorMatrix>
        </filter>
        <filter x="-10.3%" y="-6.1%" width="120.7%" height="120.6%" filterUnits="objectBoundingBox" id="filter-16">
            <feGaussianBlur stdDeviation="10.5" in="SourceAlpha" result="shadowBlurInner1"></feGaussianBlur>
            <feOffset dx="5" dy="11" in="shadowBlurInner1" result="shadowOffsetInner1"></feOffset>
            <feComposite in="shadowOffsetInner1" in2="SourceAlpha" operator="arithmetic" k2="-1" k3="1" result="shadowInnerInner1"></feComposite>
            <feColorMatrix values="0 0 0 0 0.423529412   0 0 0 0 0.760179228   0 0 0 0 1  0 0 0 1 0" type="matrix" in="shadowInnerInner1" result="shadowMatrixInner1"></feColorMatrix>
            <feOffset dx="0" dy="-7" in="SourceAlpha" result="shadowOffsetInner2"></feOffset>
            <feComposite in="shadowOffsetInner2" in2="SourceAlpha" operator="arithmetic" k2="-1" k3="1" result="shadowInnerInner2"></feComposite>
            <feColorMatrix values="0 0 0 0 1   0 0 0 0 1   0 0 0 0 1  0 0 0 1 0" type="matrix" in="shadowInnerInner2" result="shadowMatrixInner2"></feColorMatrix>
            <feOffset dx="0" dy="7" in="SourceAlpha" result="shadowOffsetInner3"></feOffset>
            <feComposite in="shadowOffsetInner3" in2="SourceAlpha" operator="arithmetic" k2="-1" k3="1" result="shadowInnerInner3"></feComposite>
            <feColorMatrix values="0 0 0 0 1   0 0 0 0 1   0 0 0 0 1  0 0 0 0.675356138 0" type="matrix" in="shadowInnerInner3" result="shadowMatrixInner3"></feColorMatrix>
            <feMerge>
                <feMergeNode in="shadowMatrixInner1"></feMergeNode>
                <feMergeNode in="shadowMatrixInner2"></feMergeNode>
                <feMergeNode in="shadowMatrixInner3"></feMergeNode>
            </feMerge>
        </filter>
    </defs>
    <g id="apps/512/deepin-activation-alert" stroke="none" stroke-width="1" fill="none" fill-rule="evenodd">
        <g id="蒙版-2" filter="url(#filter-1)" transform="translate(21.333333, 21.333333)">
            <mask id="mask-4" fill="white">
                <use xlink:href="#path-3"></use>
            </mask>
            <g id="蒙版">
                <use fill="url(#linearGradient-2)" fill-rule="evenodd" xlink:href="#path-3"></use>
                <use fill="black" fill-opacity="1" filter="url(#filter-5)" xlink:href="#path-3"></use>
            </g>
            <mask id="mask-8" fill="white">
                <use xlink:href="#path-7"></use>
            </mask>
            <use id="蒙版" fill="url(#linearGradient-6)" xlink:href="#path-7"></use>
            <g id="矩形" mask="url(#mask-8)">
                <use fill="url(#linearGradient-9)" fill-rule="evenodd" xlink:href="#path-10"></use>
                <use fill="black" fill-opacity="1" filter="url(#filter-11)" xlink:href="#path-10"></use>
            </g>
            <path d="M80,138.666667 L86.4,138.666667 C89.3455187,138.666667 91.7333333,141.054481 91.7333333,144 L91.7333333,150.4 C91.7333333,153.345519 89.3455187,155.733333 86.4,155.733333 L80,155.733333 C77.0544813,155.733333 74.6666667,153.345519 74.6666667,150.4 L74.6666667,144 C74.6666667,141.054481 77.0544813,138.666667 80,138.666667 Z M80,172.8 L86.4,172.8 C89.3455187,172.8 91.7333333,175.187815 91.7333333,178.133333 L91.7333333,184.533333 C91.7333333,187.478852 89.3455187,189.866667 86.4,189.866667 L80,189.866667 C77.0544813,189.866667 74.6666667,187.478852 74.6666667,184.533333 L74.6666667,178.133333 C74.6666667,175.187815 77.0544813,172.8 80,172.8 Z M80,206.933333 L86.4,206.933333 C89.3455187,206.933333 91.7333333,209.321148 91.7333333,212.266667 L91.7333333,218.666667 C91.7333333,221.612185 89.3455187,224 86.4,224 L80,224 C77.0544813,224 74.6666667,221.612185 74.6666667,218.666667 L74.6666667,212.266667 C74.6666667,209.321148 77.0544813,206.933333 80,206.933333 Z M114.133333,206.933333 L120.533333,206.933333 C123.478852,206.933333 125.866667,209.321148 125.866667,212.266667 L125.866667,218.666667 C125.866667,221.612185 123.478852,224 120.533333,224 L114.133333,224 C111.187815,224 108.8,221.612185 108.8,218.666667 L108.8,212.266667 C108.8,209.321148 111.187815,206.933333 114.133333,206.933333 Z M148.266667,206.933333 L171.733333,206.933333 C174.678852,206.933333 177.066667,209.321148 177.066667,212.266667 L177.066667,218.666667 C177.066667,221.612185 174.678852,224 171.733333,224 L148.266667,224 C145.321148,224 142.933333,221.612185 142.933333,218.666667 L142.933333,212.266667 C142.933333,209.321148 145.321148,206.933333 148.266667,206.933333 Z M301.866667,206.933333 L325.333333,206.933333 C328.278852,206.933333 330.666667,209.321148 330.666667,212.266667 L330.666667,218.666667 C330.666667,221.612185 328.278852,224 325.333333,224 L301.866667,224 C298.921148,224 296.533333,221.612185 296.533333,218.666667 L296.533333,212.266667 C296.533333,209.321148 298.921148,206.933333 301.866667,206.933333 Z M199.466667,206.933333 L274.133333,206.933333 C277.078852,206.933333 279.466667,209.321148 279.466667,212.266667 L279.466667,218.666667 C279.466667,221.612185 277.078852,224 274.133333,224 L199.466667,224 C196.521148,224 194.133333,221.612185 194.133333,218.666667 L194.133333,212.266667 C194.133333,209.321148 196.521148,206.933333 199.466667,206.933333 Z M80,241.066667 L86.4,241.066667 C89.3455187,241.066667 91.7333333,243.454481 91.7333333,246.4 L91.7333333,252.8 C91.7333333,255.745519 89.3455187,258.133333 86.4,258.133333 L80,258.133333 C77.0544813,258.133333 74.6666667,255.745519 74.6666667,252.8 L74.6666667,246.4 C74.6666667,243.454481 77.0544813,241.066667 80,241.066667 Z M114.133333,241.066667 L188.8,241.066667 C191.745519,241.066667 194.133333,243.454481 194.133333,246.4 L194.133333,252.8 C194.133333,255.745519 191.745519,258.133333 188.8,258.133333 L114.133333,258.133333 C111.187815,258.133333 108.8,255.745519 108.8,252.8 L108.8,246.4 C108.8,243.454481 111.187815,241.066667 114.133333,241.066667 Z M216.533333,241.066667 L274.133333,241.066667 C277.078852,241.066667 279.466667,243.454481 279.466667,246.4 L279.466667,252.8 C279.466667,255.745519 277.078852,258.133333 274.133333,258.133333 L216.533333,258.133333 C213.587815,258.133333 211.2,255.745519 211.2,252.8 L211.2,246.4 C211.2,243.454481 213.587815,241.066667 216.533333,241.066667 Z M80,275.2 L86.4,275.2 C89.3455187,275.2 91.7333333,277.587815 91.7333333,280.533333 L91.7333333,286.933333 C91.7333333,289.878852 89.3455187,292.266667 86.4,292.266667 L80,292.266667 C77.0544813,292.266667 74.6666667,289.878852 74.6666667,286.933333 L74.6666667,280.533333 C74.6666667,277.587815 77.0544813,275.2 80,275.2 Z M114.133333,275.2 L120.533333,275.2 C123.478852,275.2 125.866667,277.587815 125.866667,280.533333 L125.866667,286.933333 C125.866667,289.878852 123.478852,292.266667 120.533333,292.266667 L114.133333,292.266667 C111.187815,292.266667 108.8,289.878852 108.8,286.933333 L108.8,280.533333 C108.8,277.587815 111.187815,275.2 114.133333,275.2 Z M148.266667,275.2 L171.733333,275.2 C174.678852,275.2 177.066667,277.587815 177.066667,280.533333 L177.066667,286.933333 C177.066667,289.878852 174.678852,292.266667 171.733333,292.266667 L148.266667,292.266667 C145.321148,292.266667 142.933333,289.878852 142.933333,286.933333 L142.933333,280.533333 C142.933333,277.587815 145.321148,275.2 148.266667,275.2 Z M284.8,275.2 L308.266667,275.2 C311.212185,275.2 313.6,277.587815 313.6,280.533333 L313.6,286.933333 C313.6,289.878852 311.212185,292.266667 308.266667,292.266667 L284.8,292.266667 C281.854481,292.266667 279.466667,289.878852 279.466667,286.933333 L279.466667,280.533333 C279.466667,277.587815 281.854481,275.2 284.8,275.2 Z M199.466667,275.2 L257.066667,275.2 C260.012185,275.2 262.4,277.587815 262.4,280.533333 L262.4,286.933333 C262.4,289.878852 260.012185,292.266667 257.066667,292.266667 L199.466667,292.266667 C196.521148,292.266667 194.133333,289.878852 194.133333,286.933333 L194.133333,280.533333 C194.133333,277.587815 196.521148,275.2 199.466667,275.2 Z M80,309.333333 L86.4,309.333333 C89.3455187,309.333333 91.7333333,311.721148 91.7333333,314.666667 L91.7333333,321.066667 C91.7333333,324.012185 89.3455187,326.4 86.4,326.4 L80,326.4 C77.0544813,326.4 74.6666667,324.012185 74.6666667,321.066667 L74.6666667,314.666667 C74.6666667,311.721148 77.0544813,309.333333 80,309.333333 Z M114.133333,309.333333 L120.533333,309.333333 C123.478852,309.333333 125.866667,311.721148 125.866667,314.666667 L125.866667,321.066667 C125.866667,324.012185 123.478852,326.4 120.533333,326.4 L114.133333,326.4 C111.187815,326.4 108.8,324.012185 108.8,321.066667 L108.8,314.666667 C108.8,311.721148 111.187815,309.333333 114.133333,309.333333 Z M114.133333,343.466667 L137.6,343.466667 C140.545519,343.466667 142.933333,345.854481 142.933333,348.8 L142.933333,355.2 C142.933333,358.145519 140.545519,360.533333 137.6,360.533333 L114.133333,360.533333 C111.187815,360.533333 108.8,358.145519 108.8,355.2 L108.8,348.8 C108.8,345.854481 111.187815,343.466667 114.133333,343.466667 Z M165.333333,343.466667 L188.8,343.466667 C191.745519,343.466667 194.133333,345.854481 194.133333,348.8 L194.133333,355.2 C194.133333,358.145519 191.745519,360.533333 188.8,360.533333 L165.333333,360.533333 C162.387815,360.533333 160,358.145519 160,355.2 L160,348.8 C160,345.854481 162.387815,343.466667 165.333333,343.466667 Z M216.533333,343.466667 L222.933333,343.466667 C225.878852,343.466667 228.266667,345.854481 228.266667,348.8 L228.266667,355.2 C228.266667,358.145519 225.878852,360.533333 222.933333,360.533333 L216.533333,360.533333 C213.587815,360.533333 211.2,358.145519 211.2,355.2 L211.2,348.8 C211.2,345.854481 213.587815,343.466667 216.533333,343.466667 Z M148.266667,309.333333 L205.866667,309.333333 C208.812185,309.333333 211.2,311.721148 211.2,314.666667 L211.2,321.066667 C211.2,324.012185 208.812185,326.4 205.866667,326.4 L148.266667,326.4 C145.321148,326.4 142.933333,324.012185 142.933333,321.066667 L142.933333,314.666667 C142.933333,311.721148 145.321148,309.333333 148.266667,309.333333 Z M80,343.466667 L86.4,343.466667 C89.3455187,343.466667 91.7333333,345.854481 91.7333333,348.8 L91.7333333,355.2 C91.7333333,358.145519 89.3455187,360.533333 86.4,360.533333 L80,360.533333 C77.0544813,360.533333 74.6666667,358.145519 74.6666667,355.2 L74.6666667,348.8 C74.6666667,345.854481 77.0544813,343.466667 80,343.466667 Z M80,377.6 L86.4,377.6 C89.3455187,377.6 91.7333333,379.987815 91.7333333,382.933333 L91.7333333,389.333333 C91.7333333,392.278852 89.3455187,394.666667 86.4,394.666667 L80,394.666667 C77.0544813,394.666667 74.6666667,392.278852 74.6666667,389.333333 L74.6666667,382.933333 C74.6666667,379.987815 77.0544813,377.6 80,377.6 Z M216.533333,172.8 L222.933333,172.8 C225.878852,172.8 228.266667,175.187815 228.266667,178.133333 L228.266667,184.533333 C228.266667,187.478852 225.878852,189.866667 222.933333,189.866667 L216.533333,189.866667 C213.587815,189.866667 211.2,187.478852 211.2,184.533333 L211.2,178.133333 C211.2,175.187815 213.587815,172.8 216.533333,172.8 Z M114.133333,172.8 L137.6,172.8 C140.545519,172.8 142.933333,175.187815 142.933333,178.133333 L142.933333,184.533333 C142.933333,187.478852 140.545519,189.866667 137.6,189.866667 L114.133333,189.866667 C111.187815,189.866667 108.8,187.478852 108.8,184.533333 L108.8,178.133333 C108.8,175.187815 111.187815,172.8 114.133333,172.8 Z M165.333333,172.8 L188.8,172.8 C191.745519,172.8 194.133333,175.187815 194.133333,178.133333 L194.133333,184.533333 C194.133333,187.478852 191.745519,189.866667 188.8,189.866667 L165.333333,189.866667 C162.387815,189.866667 160,187.478852 160,184.533333 L160,178.133333 C160,175.187815 162.387815,172.8 165.333333,172.8 Z" id="形状结合" fill="url(#linearGradient-12)" mask="url(#mask-8)"></path>
            <g id="形状" fill-rule="nonzero" mask="url(#mask-8)">
                <use fill="black" fill-opacity="1" filter="url(#filter-15)" xlink:href="#path-14"></use>
                <use fill="url(#radialGradient-13)" xlink:href="#path-14"></use>
                <use fill="black" fill-opacity="1" filter="url(#filter-16)" xlink:href="#path-14"></use>
            </g>
            <rect id="矩形" fill="#FEC23E" mask="url(#mask-8)" x="330.666667" y="32" width="32" height="32" rx="16"></rect>
            <rect id="矩形备份-2" fill="#22E4B4" mask="url(#mask-8)" x="277.333333" y="32" width="32" height="32" rx="16"></rect>
            <rect id="矩形备份" fill="#FA4E49" mask="url(#mask-8)" x="384" y="32" width="32" height="32" rx="16"></rect>
        </g>
    </g>
</svg>