<?xml version="1.0" encoding="UTF-8"?>
<svg width="512px" height="512px" viewBox="0 0 512 512" version="1.1" xmlns="http://www.w3.org/2000/svg" xmlns:xlink="http://www.w3.org/1999/xlink">
    <title>apps/512/deepin-app-store</title>
    <defs>
        <filter x="-17.0%" y="-8.4%" width="134.0%" height="116.9%" filterUnits="objectBoundingBox" id="filter-1">
            <feOffset dx="0" dy="0" in="SourceAlpha" result="shadowOffsetOuter1"></feOffset>
            <feGaussianBlur stdDeviation="10.5" in="shadowOffsetOuter1" result="shadowBlurOuter1"></feGaussianBlur>
            <feColorMatrix values="0 0 0 0 0   0 0 0 0 0   0 0 0 0 0  0 0 0 0.2 0" type="matrix" in="shadowBlurOuter1" result="shadowMatrixOuter1"></feColorMatrix>
            <feMerge>
                <feMergeNode in="shadowMatrixOuter1"></feMergeNode>
                <feMergeNode in="SourceGraphic"></feMergeNode>
            </feMerge>
        </filter>
        <linearGradient x1="50%" y1="0%" x2="50%" y2="100%" id="linearGradient-2">
            <stop stop-color="#FFE6C4" offset="0%"></stop>
            <stop stop-color="#FFFAF3" offset="100%"></stop>
        </linearGradient>
        <path d="M0,0 L426.666667,0 L426.666667,192 C426.666667,239.128299 388.461632,277.333333 341.333333,277.333333 L85.3333333,277.333333 C38.2050347,277.333333 1.99824067e-14,239.128299 0,192 L0,0 L0,0 Z" id="path-3"></path>
        <filter x="-3.8%" y="-5.8%" width="107.5%" height="111.5%" filterUnits="objectBoundingBox" id="filter-5">
            <feGaussianBlur stdDeviation="10.5" in="SourceAlpha" result="shadowBlurInner1"></feGaussianBlur>
            <feOffset dx="0" dy="-11" in="shadowBlurInner1" result="shadowOffsetInner1"></feOffset>
            <feComposite in="shadowOffsetInner1" in2="SourceAlpha" operator="arithmetic" k2="-1" k3="1" result="shadowInnerInner1"></feComposite>
            <feColorMatrix values="0 0 0 0 1   0 0 0 0 0.895092713   0 0 0 0 0.823678068  0 0 0 1 0" type="matrix" in="shadowInnerInner1"></feColorMatrix>
        </filter>
        <path d="M66.6666667,21.3333333 L157.333333,21.3333333 C164.69713,21.3333333 170.666667,27.30287 170.666667,34.6666667 L170.666667,149.333333 L170.666667,149.333333 L53.3333333,149.333333 L53.3333333,34.6666667 C53.3333333,27.30287 59.30287,21.3333333 66.6666667,21.3333333 Z" id="path-6"></path>
        <filter x="-18.8%" y="-8.6%" width="137.5%" height="134.4%" filterUnits="objectBoundingBox" id="filter-7">
            <feOffset dx="0" dy="11" in="SourceAlpha" result="shadowOffsetOuter1"></feOffset>
            <feGaussianBlur stdDeviation="5.5" in="shadowOffsetOuter1" result="shadowBlurOuter1"></feGaussianBlur>
            <feColorMatrix values="0 0 0 0 1   0 0 0 0 0.903486691   0 0 0 0 0.821267626  0 0 0 1 0" type="matrix" in="shadowBlurOuter1"></feColorMatrix>
        </filter>
        <linearGradient x1="50%" y1="0%" x2="50%" y2="91.7398158%" id="linearGradient-8">
            <stop stop-color="#37A2FE" offset="0%"></stop>
            <stop stop-color="#36A4FF" offset="100%"></stop>
        </linearGradient>
        <rect id="path-9" x="64" y="42.6666667" width="96" height="96" rx="10.6666667"></rect>
        <filter x="-22.4%" y="-22.4%" width="144.8%" height="144.8%" filterUnits="objectBoundingBox" id="filter-10">
            <feOffset dx="0" dy="-2" in="SourceAlpha" result="shadowOffsetInner1"></feOffset>
            <feComposite in="shadowOffsetInner1" in2="SourceAlpha" operator="arithmetic" k2="-1" k3="1" result="shadowInnerInner1"></feComposite>
            <feColorMatrix values="0 0 0 0 1   0 0 0 0 1   0 0 0 0 1  0 0 0 0.498572716 0" type="matrix" in="shadowInnerInner1" result="shadowMatrixInner1"></feColorMatrix>
            <feGaussianBlur stdDeviation="16" in="SourceAlpha" result="shadowBlurInner2"></feGaussianBlur>
            <feOffset dx="0" dy="11" in="shadowBlurInner2" result="shadowOffsetInner2"></feOffset>
            <feComposite in="shadowOffsetInner2" in2="SourceAlpha" operator="arithmetic" k2="-1" k3="1" result="shadowInnerInner2"></feComposite>
            <feColorMatrix values="0 0 0 0 0   0 0 0 0 0.632053391   0 0 0 0 0.840358126  0 0 0 1 0" type="matrix" in="shadowInnerInner2" result="shadowMatrixInner2"></feColorMatrix>
            <feMerge>
                <feMergeNode in="shadowMatrixInner1"></feMergeNode>
                <feMergeNode in="shadowMatrixInner2"></feMergeNode>
            </feMerge>
        </filter>
        <linearGradient x1="50%" y1="0%" x2="50%" y2="91.7398158%" id="linearGradient-11">
            <stop stop-color="#6EE3F4" offset="0%"></stop>
            <stop stop-color="#17B5FF" offset="100%"></stop>
        </linearGradient>
        <linearGradient x1="50%" y1="0%" x2="50%" y2="100%" id="linearGradient-12">
            <stop stop-color="#FFF7F7" offset="0%"></stop>
            <stop stop-color="#FFF8F5" offset="100%"></stop>
        </linearGradient>
        <path d="M261.333333,256 L368,256 C370.945519,256 373.333333,258.387815 373.333333,261.333333 L373.333333,277.333333 L373.333333,277.333333 L256,277.333333 L256,261.333333 C256,258.387815 258.387815,256 261.333333,256 Z" id="path-13"></path>
        <filter x="-45.6%" y="-199.2%" width="191.2%" height="601.6%" filterUnits="objectBoundingBox" id="filter-14">
            <feOffset dx="0" dy="11" in="SourceAlpha" result="shadowOffsetOuter1"></feOffset>
            <feGaussianBlur stdDeviation="16" in="shadowOffsetOuter1" result="shadowBlurOuter1"></feGaussianBlur>
            <feColorMatrix values="0 0 0 0 0.739470993   0 0 0 0 0.41692202   0 0 0 0 0  0 0 0 0.597012607 0" type="matrix" in="shadowBlurOuter1"></feColorMatrix>
        </filter>
        <filter x="-29.4%" y="-110.2%" width="158.8%" height="423.4%" filterUnits="objectBoundingBox" id="filter-15">
            <feOffset dx="0" dy="5" in="SourceAlpha" result="shadowOffsetInner1"></feOffset>
            <feComposite in="shadowOffsetInner1" in2="SourceAlpha" operator="arithmetic" k2="-1" k3="1" result="shadowInnerInner1"></feComposite>
            <feColorMatrix values="0 0 0 0 1   0 0 0 0 1   0 0 0 0 1  0 0 0 1 0" type="matrix" in="shadowInnerInner1"></feColorMatrix>
        </filter>
        <linearGradient x1="50%" y1="0%" x2="50%" y2="100%" id="linearGradient-16">
            <stop stop-color="#FFF7F7" offset="0%"></stop>
            <stop stop-color="#FFF7F3" offset="100%"></stop>
        </linearGradient>
        <path d="M48,149.333333 L176,149.333333 C178.945519,149.333333 181.333333,151.721148 181.333333,154.666667 L181.333333,160 L181.333333,160 L42.6666667,160 L42.6666667,154.666667 C42.6666667,151.721148 45.0544813,149.333333 48,149.333333 Z" id="path-17"></path>
        <filter x="-26.7%" y="-243.7%" width="153.4%" height="793.7%" filterUnits="objectBoundingBox" id="filter-18">
            <feOffset dx="0" dy="11" in="SourceAlpha" result="shadowOffsetOuter1"></feOffset>
            <feGaussianBlur stdDeviation="10.5" in="shadowOffsetOuter1" result="shadowBlurOuter1"></feGaussianBlur>
            <feColorMatrix values="0 0 0 0 0.969117096   0 0 0 0 0.865803389   0 0 0 0 0.778143274  0 0 0 1 0" type="matrix" in="shadowBlurOuter1"></feColorMatrix>
        </filter>
        <filter x="-16.9%" y="-117.2%" width="133.9%" height="540.6%" filterUnits="objectBoundingBox" id="filter-19">
            <feOffset dx="0" dy="5" in="SourceAlpha" result="shadowOffsetInner1"></feOffset>
            <feComposite in="shadowOffsetInner1" in2="SourceAlpha" operator="arithmetic" k2="-1" k3="1" result="shadowInnerInner1"></feComposite>
            <feColorMatrix values="0 0 0 0 1   0 0 0 0 1   0 0 0 0 1  0 0 0 1 0" type="matrix" in="shadowInnerInner1"></feColorMatrix>
        </filter>
        <filter x="-187.5%" y="-75.0%" width="475.0%" height="250.0%" filterUnits="objectBoundingBox" id="filter-20">
            <feGaussianBlur stdDeviation="53.3333333" in="SourceGraphic"></feGaussianBlur>
        </filter>
        <filter x="-115.4%" y="-214.3%" width="330.8%" height="528.6%" filterUnits="objectBoundingBox" id="filter-21">
            <feGaussianBlur stdDeviation="53.3333333" in="SourceGraphic"></feGaussianBlur>
        </filter>
        <linearGradient x1="50%" y1="0%" x2="50%" y2="100%" id="linearGradient-22">
            <stop stop-color="#FFFFFF" offset="0%"></stop>
            <stop stop-color="#FEF4EF" offset="100%"></stop>
        </linearGradient>
        <linearGradient x1="38.691705%" y1="34.4488568%" x2="60.5866731%" y2="80.5850711%" id="linearGradient-23">
            <stop stop-color="#FFB224" offset="0%"></stop>
            <stop stop-color="#FF4900" offset="100%"></stop>
        </linearGradient>
        <path d="M69.2798246,10.6666667 L117.333333,10.6666667 L117.333333,10.6666667 L95.5695957,224 L0,224 L27.1041156,46.8793414 C30.2915789,26.0498259 48.2078376,10.6666667 69.2798246,10.6666667 Z" id="path-24"></path>
        <linearGradient x1="47.066028%" y1="0%" x2="52.8384593%" y2="100%" id="linearGradient-26">
            <stop stop-color="#FF6F31" offset="0%"></stop>
            <stop stop-color="#FF4900" offset="100%"></stop>
        </linearGradient>
        <linearGradient x1="65.125%" y1="50%" x2="44.6863973%" y2="74.6859187%" id="linearGradient-27">
            <stop stop-color="#FF8614" offset="0%"></stop>
            <stop stop-color="#FF4900" offset="100%"></stop>
        </linearGradient>
        <path d="M373.333333,10.6666667 L430.287151,10.6666667 C452.167174,10.6666667 470.501017,27.217728 472.731534,48.9837618 L490.666667,224 L490.666667,224 L394.666667,224 L373.333333,10.6666667 Z" id="path-28"></path>
        <linearGradient x1="46.8136813%" y1="0%" x2="54.1958961%" y2="100%" id="linearGradient-30">
            <stop stop-color="#FFFFFF" offset="0%"></stop>
            <stop stop-color="#FFF3EF" offset="100%"></stop>
        </linearGradient>
        <filter x="-11.8%" y="-108.8%" width="123.6%" height="317.5%" filterUnits="objectBoundingBox" id="filter-31">
            <feOffset dx="0" dy="4" in="SourceAlpha" result="shadowOffsetOuter1"></feOffset>
            <feGaussianBlur stdDeviation="13" in="shadowOffsetOuter1" result="shadowBlurOuter1"></feGaussianBlur>
            <feColorMatrix values="0 0 0 0 1   0 0 0 0 0.837927537   0 0 0 0 0.633122142  0 0 0 0.800601986 0" type="matrix" in="shadowBlurOuter1" result="shadowMatrixOuter1"></feColorMatrix>
            <feMerge>
                <feMergeNode in="shadowMatrixOuter1"></feMergeNode>
                <feMergeNode in="SourceGraphic"></feMergeNode>
            </feMerge>
        </filter>
        <linearGradient x1="50%" y1="0%" x2="50%" y2="100%" id="linearGradient-32">
            <stop stop-color="#FF300C" offset="0%"></stop>
            <stop stop-color="#FF5010" offset="100%"></stop>
        </linearGradient>
        <linearGradient x1="50%" y1="0%" x2="50%" y2="77.3457831%" id="linearGradient-33">
            <stop stop-color="#FFDFC0" offset="0%"></stop>
            <stop stop-color="#FFFFFF" offset="100%"></stop>
        </linearGradient>
        <linearGradient x1="50%" y1="0%" x2="50%" y2="100%" id="linearGradient-34">
            <stop stop-color="#FF300C" offset="0%"></stop>
            <stop stop-color="#FF5010" offset="100%"></stop>
        </linearGradient>
    </defs>
    <g id="apps/512/deepin-app-store" stroke="none" stroke-width="1" fill="none" fill-rule="evenodd">
        <g id="编组-21" filter="url(#filter-1)" transform="translate(10.666667, 10.666667)">
            <g id="矩形-3" transform="translate(32.000000, 202.666667)">
                <mask id="mask-4" fill="white">
                    <use xlink:href="#path-3"></use>
                </mask>
                <g id="蒙版">
                    <use fill="url(#linearGradient-2)" fill-rule="evenodd" xlink:href="#path-3"></use>
                    <use fill="black" fill-opacity="1" filter="url(#filter-5)" xlink:href="#path-3"></use>
                </g>
                <g id="矩形" mask="url(#mask-4)">
                    <use fill="black" fill-opacity="1" filter="url(#filter-7)" xlink:href="#path-6"></use>
                    <use fill="#63CDFE" fill-rule="evenodd" xlink:href="#path-6"></use>
                </g>
                <g id="矩形" mask="url(#mask-4)">
                    <use fill="url(#linearGradient-8)" fill-rule="evenodd" xlink:href="#path-9"></use>
                    <use fill="black" fill-opacity="1" filter="url(#filter-10)" xlink:href="#path-9"></use>
                </g>
                <path d="M277.333333,128 L352,128 C357.891037,128 362.666667,132.775629 362.666667,138.666667 L362.666667,256 L362.666667,256 L266.666667,256 L266.666667,138.666667 C266.666667,132.775629 271.442296,128 277.333333,128 Z" id="矩形" fill="url(#linearGradient-11)" mask="url(#mask-4)"></path>
                <g id="矩形" mask="url(#mask-4)">
                    <use fill="black" fill-opacity="1" filter="url(#filter-14)" xlink:href="#path-13"></use>
                    <use fill="url(#linearGradient-12)" fill-rule="evenodd" xlink:href="#path-13"></use>
                    <use fill="black" fill-opacity="1" filter="url(#filter-15)" xlink:href="#path-13"></use>
                </g>
                <g id="矩形" mask="url(#mask-4)">
                    <use fill="black" fill-opacity="1" filter="url(#filter-18)" xlink:href="#path-17"></use>
                    <use fill="url(#linearGradient-16)" fill-rule="evenodd" xlink:href="#path-17"></use>
                    <use fill="black" fill-opacity="1" filter="url(#filter-19)" xlink:href="#path-17"></use>
                </g>
                <rect id="矩形" fill="#FFD2B3" filter="url(#filter-20)" mask="url(#mask-4)" x="437.333333" y="128" width="85.3333333" height="213.333333" rx="21.3333333"></rect>
                <ellipse id="椭圆形" fill="#FFE4D2" filter="url(#filter-21)" mask="url(#mask-4)" cx="353.780066" cy="305.592499" rx="69.3333333" ry="37.3333333"></ellipse>
                <circle id="椭圆形" fill="url(#linearGradient-22)" mask="url(#mask-4)" cx="288" cy="181.333333" r="10.6666667"></circle>
            </g>
            <g id="编组-20">
                <mask id="mask-25" fill="white">
                    <use xlink:href="#path-24"></use>
                </mask>
                <use id="矩形" fill="url(#linearGradient-23)" xlink:href="#path-24"></use>
                <polygon id="矩形备份-40" fill="url(#linearGradient-26)" points="213.333333 10.6666667 277.333333 10.6666667 298.666667 224 192 224"></polygon>
                <mask id="mask-29" fill="white">
                    <use xlink:href="#path-28"></use>
                </mask>
                <use id="矩形备份-55" fill="url(#linearGradient-27)" xlink:href="#path-28"></use>
                <polygon id="矩形备份-19" fill="url(#linearGradient-30)" points="117.861752 10.6666667 213.333333 10.6666667 192 224 96 224"></polygon>
                <polygon id="矩形备份-47" fill="url(#linearGradient-30)" points="277.333333 10.6666667 373.333333 10.6666667 394.666667 224 298.666667 224"></polygon>
            </g>
            <g id="编组" filter="url(#filter-31)" transform="translate(0.000000, 224.000000)">
                <path d="M394.666667,0 L490.666667,0 L490.666667,5.33333333 C490.666667,31.8430013 469.176335,53.3333333 442.666667,53.3333333 C416.156999,53.3333333 394.666667,31.8430013 394.666667,5.33333333 L394.666667,0 L394.666667,0 Z" id="矩形" fill="url(#linearGradient-32)"></path>
                <path d="M0,0 L96,0 L96,5.33333333 C96,31.8430013 74.509668,53.3333333 48,53.3333333 C21.490332,53.3333333 3.24649801e-15,31.8430013 0,5.33333333 L0,0 L0,0 Z" id="矩形备份-8" fill="url(#linearGradient-32)"></path>
                <path d="M298.666667,0 L394.666667,0 L394.666667,5.33333333 C394.666667,31.8430013 373.176335,53.3333333 346.666667,53.3333333 C320.156999,53.3333333 298.666667,31.8430013 298.666667,5.33333333 L298.666667,0 L298.666667,0 Z" id="矩形备份-5" fill="url(#linearGradient-33)"></path>
                <path d="M96,0 L192,0 L192,5.33333333 C192,31.8430013 170.509668,53.3333333 144,53.3333333 C117.490332,53.3333333 96,31.8430013 96,5.33333333 L96,0 L96,0 Z" id="矩形备份-7" fill="url(#linearGradient-33)"></path>
                <path d="M192,0 L298.666667,0 C298.666667,29.4551867 274.78852,53.3333333 245.333333,53.3333333 C215.878147,53.3333333 192,29.4551867 192,-2.13162821e-14 L192,0 L192,0 Z" id="矩形备份-6" fill="url(#linearGradient-34)"></path>
            </g>
        </g>
    </g>
</svg>