<?xml version="1.0" encoding="UTF-8"?>
<svg width="512px" height="512px" viewBox="0 0 512 512" version="1.1" xmlns="http://www.w3.org/2000/svg" xmlns:xlink="http://www.w3.org/1999/xlink">
    <title>apps/512/education-center</title>
    <defs>
        <filter x="-8.6%" y="-8.6%" width="117.3%" height="117.3%" filterUnits="objectBoundingBox" id="filter-1">
            <feOffset dx="0" dy="0" in="SourceAlpha" result="shadowOffsetOuter1"></feOffset>
            <feGaussianBlur stdDeviation="10.5" in="shadowOffsetOuter1" result="shadowBlurOuter1"></feGaussianBlur>
            <feColorMatrix values="0 0 0 0 0   0 0 0 0 0   0 0 0 0 0  0 0 0 0.2 0" type="matrix" in="shadowBlurOuter1" result="shadowMatrixOuter1"></feColorMatrix>
            <feMerge>
                <feMergeNode in="shadowMatrixOuter1"></feMergeNode>
                <feMergeNode in="SourceGraphic"></feMergeNode>
            </feMerge>
        </filter>
        <linearGradient x1="97.3582139%" y1="45.8583294%" x2="0.353710731%" y2="45.8583294%" id="linearGradient-2">
            <stop stop-color="#FFDE65" offset="0%"></stop>
            <stop stop-color="#FFB431" offset="100%"></stop>
        </linearGradient>
        <linearGradient x1="97.3582139%" y1="45.8583294%" x2="0.353710731%" y2="45.8583294%" id="linearGradient-3">
            <stop stop-color="#F70F21" offset="0%"></stop>
            <stop stop-color="#FF4655" offset="100%"></stop>
        </linearGradient>
        <linearGradient x1="97.0147964%" y1="50%" x2="0%" y2="51.4618413%" id="linearGradient-4">
            <stop stop-color="#0CF7B8" offset="0%"></stop>
            <stop stop-color="#00D374" offset="100%"></stop>
        </linearGradient>
        <linearGradient x1="100%" y1="42.1297855%" x2="26.2450772%" y2="97.4486832%" id="linearGradient-5">
            <stop stop-color="#EEF7FD" offset="0%"></stop>
            <stop stop-color="#F7FBFF" offset="100%"></stop>
        </linearGradient>
        <linearGradient x1="94.6129581%" y1="50%" x2="2.55434294%" y2="51.8260609%" id="linearGradient-6">
            <stop stop-color="#0CF7B8" offset="0%"></stop>
            <stop stop-color="#00D374" offset="100%"></stop>
        </linearGradient>
        <linearGradient x1="65.580087%" y1="92.4214997%" x2="65.580087%" y2="6.36211723%" id="linearGradient-7">
            <stop stop-color="#1CD6A2" offset="0%"></stop>
            <stop stop-color="#06BD8B" offset="100%"></stop>
        </linearGradient>
    </defs>
    <g id="apps/512/education-center" stroke="none" stroke-width="1" fill="none" fill-rule="evenodd">
        <g id="编组-5" filter="url(#filter-1)" transform="translate(21.333333, 21.119792)">
            <g id="编组-8" transform="translate(0.000000, 230.088353)" fill="url(#linearGradient-2)">
                <path d="M64,0 L405.333333,0 C440.679557,-6.49299601e-15 469.333333,28.653776 469.333333,64 L469.333333,164.791855 C469.333333,206.029117 435.903928,239.458522 394.666667,239.458522 L64,239.458522 C28.653776,239.458522 -2.77676335e-15,210.804746 0,175.458522 L0,64 C-4.32866401e-15,28.653776 28.653776,6.49299601e-15 64,0 Z" id="矩形备份-3"></path>
            </g>
            <g id="编组-8" transform="translate(0.000000, 245.546875)" fill="url(#linearGradient-3)">
                <path d="M64,0 L405.333333,0 C440.679557,-3.78867494e-14 469.333333,28.653776 469.333333,64 L469.333333,124.508059 C469.333333,165.74532 435.903928,199.174725 394.666667,199.174725 L64,199.174725 C28.653776,199.174725 -2.77676335e-15,170.520949 0,135.174725 L0,64 C-4.32866401e-15,28.653776 28.653776,6.49299601e-15 64,0 Z" id="矩形备份-3"></path>
            </g>
            <g id="编组-8">
                <path d="M64,0 L405.333333,0 C440.679557,-4.49921767e-14 469.333333,28.653776 469.333333,64 L469.333333,345.260417 C469.333333,386.497678 435.903928,419.927083 394.666667,419.927083 L64,419.927083 C28.653776,419.927083 4.32866401e-15,391.273307 0,355.927083 L0,64 C-4.32866401e-15,28.653776 28.653776,-6.12431347e-16 64,0 Z" id="矩形备份-3" fill="url(#linearGradient-4)"></path>
                <path d="M69.0980208,400.83375 C58.0939198,400.83375 49.1733333,391.913164 49.1733333,380.909062 C49.1733333,369.904961 58.0939198,360.984375 69.0980208,360.984375 L74.2393333,360.984042 L74.24,101.408138 C74.24,56.3930119 110.73197,19.9010417 155.747097,19.9010417 L380.053333,19.9010417 C413.278784,19.9010417 440.213333,46.8355911 440.213333,80.0610417 L440.213333,340.67375 C440.213333,373.899201 413.278784,400.83375 380.053333,400.83375 L69.0980208,400.83375 Z" id="形状结合备份" fill="url(#linearGradient-5)"></path>
                <path d="M69.2266667,0 L361.066667,0 C394.292117,-1.32088436e-14 421.226667,26.9345495 421.226667,60.16 L421.226667,301.191143 C421.226667,334.416594 394.292117,361.351143 361.066667,361.351143 L69.2266667,361.351143 L69.2266667,361.351143 L69.2266667,0 Z" id="矩形备份-7" fill="url(#linearGradient-6)"></path>
                <path d="M361.066667,0 C394.292117,-1.32088436e-14 421.226667,26.9345495 421.226667,60.16 L421.226667,301.191143 C421.226667,334.416594 394.292117,361.351143 361.066667,361.351143 L350.72,361.351143 C383.945451,361.351143 410.88,334.416594 410.88,301.191143 L410.88,301.191143 L410.88,60.16 C410.88,26.9345495 383.945451,-1.32088436e-14 350.72,0 L350.72,0 L361.066667,0 Z" id="形状结合" fill="url(#linearGradient-7)"></path>
                <path d="M245.115556,258.176527 C215.895438,258.176527 188.794648,244.01461 170.775234,219.313591 C167.212304,214.42279 168.005772,207.363787 172.566937,203.543363 C177.117863,199.711961 183.71133,200.562774 187.284498,205.464554 C201.300736,224.676457 222.386522,235.693111 245.115556,235.693111 C268.08519,235.693111 289.304074,224.484338 303.320312,204.937598 C306.852527,200.013862 313.425518,199.080713 318.017397,202.868202 C322.609276,206.655692 323.479532,213.714694 319.947317,218.627452 C301.927903,243.7676 274.647943,258.176527 245.115556,258.176527 L245.115556,258.176527 Z M197.937453,167.490854 C189.245133,167.490854 182.211419,159.94881 182.211419,150.628292 L182.211419,128.144877 C182.211419,118.824359 189.245133,111.282315 197.937453,111.282315 C206.629773,111.282315 213.663487,118.824359 213.663487,128.144877 L213.663487,150.628292 C213.663487,159.937832 206.619535,167.490854 197.937453,167.490854 Z M292.293659,167.490854 C283.611578,167.490854 276.567625,159.94881 276.567625,150.628292 L276.567625,128.144877 C276.567625,118.824359 283.611578,111.282315 292.293659,111.282315 C300.975741,111.282315 308.019693,118.824359 308.019693,128.144877 L308.019693,150.628292 C308.019693,159.937832 300.975741,167.490854 292.293659,167.490854 L292.293659,167.490854 Z" id="形状" fill="#008762" transform="translate(245.333333, 184.729421) rotate(-20.000000) translate(-245.333333, -184.729421) "></path>
                <polygon id="矩形" fill="#01B166" points="59.2 0 69.2266667 0 69.2266667 361.351143 59.2 361.351143"></polygon>
                <polygon id="矩形备份-10" fill="#57FFB7" points="69.2266667 0 79.2533333 0 79.2533333 361.351143 69.2266667 361.351143"></polygon>
            </g>
        </g>
    </g>
</svg>