<?xml version="1.0" encoding="UTF-8"?>
<svg width="512px" height="512px" viewBox="0 0 512 512" version="1.1" xmlns="http://www.w3.org/2000/svg" xmlns:xlink="http://www.w3.org/1999/xlink">
    <title>apps/512/deepin-compressor</title>
    <defs>
        <filter x="-8.6%" y="-8.6%" width="117.3%" height="117.3%" filterUnits="objectBoundingBox" id="filter-1">
            <feOffset dx="0" dy="0" in="SourceAlpha" result="shadowOffsetOuter1"></feOffset>
            <feGaussianBlur stdDeviation="10.5" in="shadowOffsetOuter1" result="shadowBlurOuter1"></feGaussianBlur>
            <feColorMatrix values="0 0 0 0 0   0 0 0 0 0   0 0 0 0 0  0 0 0 0.2 0" type="matrix" in="shadowBlurOuter1" result="shadowMatrixOuter1"></feColorMatrix>
            <feMerge>
                <feMergeNode in="shadowMatrixOuter1"></feMergeNode>
                <feMergeNode in="SourceGraphic"></feMergeNode>
            </feMerge>
        </filter>
        <linearGradient x1="50%" y1="90.4824973%" x2="50%" y2="100%" id="linearGradient-2">
            <stop stop-color="#FFCF00" offset="0%"></stop>
            <stop stop-color="#FFC200" offset="100%"></stop>
        </linearGradient>
        <rect id="path-3" x="0" y="0" width="469.333333" height="469.333333" rx="85.1612903"></rect>
        <linearGradient x1="50%" y1="73.8762976%" x2="50%" y2="100%" id="linearGradient-5">
            <stop stop-color="#FFE500" offset="0%"></stop>
            <stop stop-color="#FF9700" offset="100%"></stop>
        </linearGradient>
        <linearGradient x1="50%" y1="4.85616985%" x2="50%" y2="55.3421021%" id="linearGradient-6">
            <stop stop-color="#FFB003" offset="0%"></stop>
            <stop stop-color="#FF8300" offset="100%"></stop>
        </linearGradient>
        <linearGradient x1="50%" y1="0%" x2="50%" y2="100%" id="linearGradient-7">
            <stop stop-color="#FFE100" offset="0%"></stop>
            <stop stop-color="#FFD400" offset="100%"></stop>
        </linearGradient>
        <path d="M56.663516,0 L154.981389,0 C168.3031,-2.44715868e-15 180.231266,8.25317527 184.927273,20.7197511 L192,39.4958496 L192,39.4958496 L412.235032,39.4958496 C441.690218,39.4958496 465.568365,63.3739963 465.568365,92.8291829 C465.568365,94.0410338 465.527061,95.2525325 465.444525,96.4615695 L453.428597,272.478485 C450.372448,317.246878 413.165994,352 368.293407,352 L101.651525,352 C56.5280261,352 19.2042283,316.869766 16.4744795,271.828912 L3.42786282,56.5597366 C1.64596953,27.1584972 24.0358734,1.87957348 53.4371128,0.0976801797 C54.5113486,0.0325749752 55.587309,1.9769601e-16 56.663516,0 Z" id="path-8"></path>
        <filter x="-3.9%" y="-6.1%" width="107.7%" height="112.2%" filterUnits="objectBoundingBox" id="filter-10">
            <feGaussianBlur stdDeviation="21.5" in="SourceAlpha" result="shadowBlurInner1"></feGaussianBlur>
            <feOffset dx="0" dy="0" in="shadowBlurInner1" result="shadowOffsetInner1"></feOffset>
            <feComposite in="shadowOffsetInner1" in2="SourceAlpha" operator="arithmetic" k2="-1" k3="1" result="shadowInnerInner1"></feComposite>
            <feColorMatrix values="0 0 0 0 1   0 0 0 0 0.964331382   0 0 0 0 0.655564024  0 0 0 1 0" type="matrix" in="shadowInnerInner1"></feColorMatrix>
        </filter>
        <filter x="-7.0%" y="-9.1%" width="114.0%" height="118.2%" filterUnits="objectBoundingBox" id="filter-11">
            <feGaussianBlur stdDeviation="10.6666667" in="SourceGraphic"></feGaussianBlur>
        </filter>
        <filter x="-97.5%" y="-193.4%" width="295.0%" height="486.8%" filterUnits="objectBoundingBox" id="filter-12">
            <feOffset dx="0" dy="11" in="SourceAlpha" result="shadowOffsetOuter1"></feOffset>
            <feGaussianBlur stdDeviation="21.5" in="shadowOffsetOuter1" result="shadowBlurOuter1"></feGaussianBlur>
            <feColorMatrix values="0 0 0 0 1   0 0 0 0 0.647058824   0 0 0 0 0.00784313725  0 0 0 0.468268548 0" type="matrix" in="shadowBlurOuter1" result="shadowMatrixOuter1"></feColorMatrix>
            <feMerge>
                <feMergeNode in="shadowMatrixOuter1"></feMergeNode>
                <feMergeNode in="SourceGraphic"></feMergeNode>
            </feMerge>
        </filter>
        <linearGradient x1="50%" y1="0%" x2="50%" y2="100%" id="linearGradient-13">
            <stop stop-color="#FFFDEE" offset="0%"></stop>
            <stop stop-color="#FFF497" offset="100%"></stop>
        </linearGradient>
        <rect id="path-14" x="0" y="0" width="109.911283" height="469.333333"></rect>
        <filter x="-10.0%" y="-4.7%" width="140.0%" height="109.4%" filterUnits="objectBoundingBox" id="filter-16">
            <feOffset dx="11" dy="0" in="SourceAlpha" result="shadowOffsetOuter1"></feOffset>
            <feGaussianBlur stdDeviation="5.5" in="shadowOffsetOuter1" result="shadowBlurOuter1"></feGaussianBlur>
            <feColorMatrix values="0 0 0 0 0   0 0 0 0 0   0 0 0 0 0  0 0 0 0.118051382 0" type="matrix" in="shadowBlurOuter1"></feColorMatrix>
        </filter>
        <linearGradient x1="50%" y1="0%" x2="50%" y2="100%" id="linearGradient-17">
            <stop stop-color="#3264FF" offset="0%"></stop>
            <stop stop-color="#20A8FF" offset="100%"></stop>
        </linearGradient>
        <circle id="path-18" cx="54.9556417" cy="277.801194" r="10.1363915"></circle>
        <filter x="-58.0%" y="-58.0%" width="216.1%" height="216.1%" filterUnits="objectBoundingBox" id="filter-19">
            <feGaussianBlur stdDeviation="5.5" in="SourceAlpha" result="shadowBlurInner1"></feGaussianBlur>
            <feOffset dx="0" dy="4" in="shadowBlurInner1" result="shadowOffsetInner1"></feOffset>
            <feComposite in="shadowOffsetInner1" in2="SourceAlpha" operator="arithmetic" k2="-1" k3="1" result="shadowInnerInner1"></feComposite>
            <feColorMatrix values="0 0 0 0 0   0 0 0 0 0   0 0 0 0 0  0 0 0 0.331665893 0" type="matrix" in="shadowInnerInner1"></feColorMatrix>
        </filter>
        <circle id="path-20" cx="54.9556417" cy="159.566555" r="10.1363915"></circle>
        <filter x="-58.0%" y="-58.0%" width="216.1%" height="216.1%" filterUnits="objectBoundingBox" id="filter-21">
            <feGaussianBlur stdDeviation="5.5" in="SourceAlpha" result="shadowBlurInner1"></feGaussianBlur>
            <feOffset dx="0" dy="4" in="shadowBlurInner1" result="shadowOffsetInner1"></feOffset>
            <feComposite in="shadowOffsetInner1" in2="SourceAlpha" operator="arithmetic" k2="-1" k3="1" result="shadowInnerInner1"></feComposite>
            <feColorMatrix values="0 0 0 0 0   0 0 0 0 0   0 0 0 0 0  0 0 0 0.331665893 0" type="matrix" in="shadowInnerInner1"></feColorMatrix>
        </filter>
        <circle id="path-22" cx="54.9556417" cy="340.895432" r="10.1363915"></circle>
        <filter x="-58.0%" y="-58.0%" width="216.1%" height="216.1%" filterUnits="objectBoundingBox" id="filter-23">
            <feGaussianBlur stdDeviation="5.5" in="SourceAlpha" result="shadowBlurInner1"></feGaussianBlur>
            <feOffset dx="0" dy="4" in="shadowBlurInner1" result="shadowOffsetInner1"></feOffset>
            <feComposite in="shadowOffsetInner1" in2="SourceAlpha" operator="arithmetic" k2="-1" k3="1" result="shadowInnerInner1"></feComposite>
            <feColorMatrix values="0 0 0 0 0   0 0 0 0 0   0 0 0 0 0  0 0 0 0.331665893 0" type="matrix" in="shadowInnerInner1"></feColorMatrix>
        </filter>
        <filter x="-20.9%" y="-29.1%" width="141.8%" height="158.2%" filterUnits="objectBoundingBox" id="filter-24">
            <feGaussianBlur stdDeviation="10.6666667" in="SourceGraphic"></feGaussianBlur>
        </filter>
        <filter x="-20.9%" y="-34.1%" width="141.8%" height="168.2%" filterUnits="objectBoundingBox" id="filter-25">
            <feGaussianBlur stdDeviation="10.6666667" in="SourceGraphic"></feGaussianBlur>
        </filter>
        <filter x="-35.5%" y="-38.0%" width="170.9%" height="176.1%" filterUnits="objectBoundingBox" id="filter-26">
            <feOffset dx="0" dy="-11" in="SourceAlpha" result="shadowOffsetOuter1"></feOffset>
            <feGaussianBlur stdDeviation="5.5" in="shadowOffsetOuter1" result="shadowBlurOuter1"></feGaussianBlur>
            <feColorMatrix values="0 0 0 0 0   0 0 0 0 0   0 0 0 0 0  0 0 0 0.099874003 0" type="matrix" in="shadowBlurOuter1" result="shadowMatrixOuter1"></feColorMatrix>
            <feMerge>
                <feMergeNode in="shadowMatrixOuter1"></feMergeNode>
                <feMergeNode in="SourceGraphic"></feMergeNode>
            </feMerge>
        </filter>
        <linearGradient x1="50%" y1="4.67550018%" x2="50%" y2="100%" id="linearGradient-27">
            <stop stop-color="#FFD167" offset="0%"></stop>
            <stop stop-color="#FFB200" offset="100%"></stop>
        </linearGradient>
        <linearGradient x1="50%" y1="4.67550018%" x2="50%" y2="50%" id="linearGradient-28">
            <stop stop-color="#FFDB89" offset="0%"></stop>
            <stop stop-color="#FFB200" offset="100%"></stop>
        </linearGradient>
    </defs>
    <g id="apps/512/deepin-compressor" stroke="none" stroke-width="1" fill="none" fill-rule="evenodd">
        <g id="蒙版-2" filter="url(#filter-1)" transform="translate(21.333333, 21.333333)">
            <mask id="mask-4" fill="white">
                <use xlink:href="#path-3"></use>
            </mask>
            <use id="蒙版" fill="url(#linearGradient-2)" xlink:href="#path-3"></use>
            <rect id="蒙版" fill="url(#linearGradient-5)" mask="url(#mask-4)" x="21.3333333" y="161.136882" width="426.666667" height="265.529785" rx="74.6666667"></rect>
            <rect id="蒙版" fill="url(#linearGradient-6)" mask="url(#mask-4)" x="21.3333333" y="21.3333333" width="426.666667" height="202.666667" rx="74.6666667"></rect>
            <g id="蒙版备份-2" mask="url(#mask-4)">
                <g transform="translate(0.000000, 64.000000)">
                    <mask id="mask-9" fill="white">
                        <use xlink:href="#path-8"></use>
                    </mask>
                    <g id="蒙版" stroke="none" fill="none">
                        <use fill="url(#linearGradient-7)" fill-rule="evenodd" xlink:href="#path-8"></use>
                        <use fill="black" fill-opacity="1" filter="url(#filter-10)" xlink:href="#path-8"></use>
                    </g>
                    <path d="M88.1136469,-36.3729451 L381.219686,-36.3729451 C410.674873,-36.3729451 434.55302,-12.4947985 434.55302,16.9603882 C434.55302,18.0764108 434.51799,19.1921585 434.447982,20.3059832 L419.027875,265.639317 C417.261644,293.739994 393.955709,315.627055 365.79958,315.627055 L103.533753,315.627055 C75.3776239,315.627055 52.0716894,293.739994 50.305458,265.639317 L34.8853515,20.3059832 C33.0376303,-9.09119261 55.370876,-34.4201862 84.7680519,-36.2679073 C85.8818766,-36.3379153 86.9976243,-36.3729451 88.1136469,-36.3729451 Z" id="矩形" stroke="none" fill-opacity="0.616962139" fill="#FFF26C" fill-rule="evenodd" filter="url(#filter-11)" mask="url(#mask-9)"></path>
                    <g id="编组-2" filter="url(#filter-12)" stroke="none" stroke-width="1" fill="none" fill-rule="evenodd" mask="url(#mask-9)">
                        <g transform="translate(74.666667, 234.227698)" fill="url(#linearGradient-13)" id="蒙版备份">
                            <rect x="0" y="0" width="106.666667" height="53.7723023" rx="26.8861512"></rect>
                        </g>
                    </g>
                </g>
            </g>
            <g id="编组" mask="url(#mask-4)">
                <g transform="translate(273.865316, 0.000000)">
                    <g id="编组-3" transform="translate(5.945766, 0.000000)">
                        <mask id="mask-15" fill="white">
                            <use xlink:href="#path-14"></use>
                        </mask>
                        <g id="蒙版">
                            <use fill="black" fill-opacity="1" filter="url(#filter-16)" xlink:href="#path-14"></use>
                            <use fill="#4EB3FE" fill-rule="evenodd" xlink:href="#path-14"></use>
                        </g>
                        <rect id="蒙版" fill="#2697FF" mask="url(#mask-15)" x="13.8677104" y="0" width="82.1758626" height="469.333333"></rect>
                        <g id="椭圆形" mask="url(#mask-15)">
                            <use fill="#EF9700" fill-rule="evenodd" xlink:href="#path-18"></use>
                            <use fill="black" fill-opacity="1" filter="url(#filter-19)" xlink:href="#path-18"></use>
                            <circle stroke="url(#linearGradient-17)" stroke-width="4.26666667" cx="54.9556417" cy="277.801194" r="12.2697248"></circle>
                        </g>
                        <g id="椭圆形备份-2" mask="url(#mask-15)">
                            <use fill="#EF9700" fill-rule="evenodd" xlink:href="#path-20"></use>
                            <use fill="black" fill-opacity="1" filter="url(#filter-21)" xlink:href="#path-20"></use>
                            <circle stroke="url(#linearGradient-17)" stroke-width="4.26666667" cx="54.9556417" cy="159.566555" r="12.2697248"></circle>
                        </g>
                        <g id="椭圆形备份" mask="url(#mask-15)">
                            <use fill="#EF9700" fill-rule="evenodd" xlink:href="#path-22"></use>
                            <use fill="black" fill-opacity="1" filter="url(#filter-23)" xlink:href="#path-22"></use>
                            <circle stroke="url(#linearGradient-17)" stroke-width="4.26666667" cx="54.9556417" cy="340.895432" r="12.2697248"></circle>
                        </g>
                        <rect id="矩形" fill-opacity="0.39" fill="#8B00FF" filter="url(#filter-24)" mask="url(#mask-15)" x="-21.6030335" y="407.828945" width="153.11735" height="109.911283"></rect>
                        <rect id="矩形备份" fill-opacity="0.2" fill="#8B00FF" filter="url(#filter-25)" mask="url(#mask-15)" x="-22.9954081" y="-27.8820801" width="153.11735" height="93.8553874"></rect>
                    </g>
                    <g id="编组-5" filter="url(#filter-26)" transform="translate(0.000000, 124.245728)" stroke-opacity="0.334508509">
                        <path d="M110.559001,1.06666667 C113.209967,1.06666667 115.609967,2.14118327 117.347226,3.87844157 C119.012098,5.5433141 120.068307,7.81685046 120.153434,10.3366327 L120.159001,10.6666667 L120.159001,102.360311 C120.159001,105.011278 119.084484,107.411278 117.347226,109.148536 C115.682353,110.813409 113.408817,111.869617 110.889035,111.954744 L110.559001,111.960311 L10.6666667,111.960311 C8.01569987,111.960311 5.61569987,110.885794 3.87844157,109.148536 C2.21356903,107.483663 1.15736031,105.210127 1.07223332,102.690345 L1.06666667,102.360311 L1.06666667,10.6666667 C1.06666667,8.01569987 2.14118327,5.61569987 3.87844157,3.87844157 C5.5433141,2.21356903 7.81685046,1.15736031 10.3366327,1.07223332 L10.6666667,1.06666667 L110.559001,1.06666667 Z M105.225667,9.6 L16,9.6 L15.7070444,9.60658575 C14.0562747,9.68095749 12.5683459,10.3806873 11.4745166,11.4745166 C10.3163444,12.6326888 9.6,14.2326888 9.6,16 L9.6,16 L9.6,97.0269775 L9.60658575,97.3199332 C9.68095749,98.9707029 10.3806873,100.458632 11.4745166,101.552461 C12.6326888,102.710633 14.2326888,103.426978 16,103.426978 L16,103.426978 L105.225667,103.426978 L105.518623,103.420392 C107.169393,103.34602 108.657321,102.64629 109.751151,101.552461 C110.909323,100.394289 111.625667,98.7942887 111.625667,97.0269775 L111.625667,97.0269775 L111.625667,16 L111.619082,15.7070444 C111.54471,14.0562747 110.84498,12.5683459 109.751151,11.4745166 C108.592979,10.3163444 106.992979,9.6 105.225667,9.6 L105.225667,9.6 Z" id="矩形" stroke="#E58B00" stroke-width="2.13333333" fill="url(#linearGradient-27)" fill-rule="nonzero"></path>
                        <path d="M60.9014079,4.41989746 C62.4779946,4.41989746 63.9264539,4.82023993 65.0508813,5.50071874 C66.0602877,6.11158937 66.8141535,6.94793857 67.080094,7.92823992 L67.080094,7.92823992 L67.1818278,8.75216792 L67.1818278,39.927002 C67.1818278,41.0784718 66.495202,42.090799 65.4699684,42.8350276 C64.3007718,43.6837607 62.682041,44.1936686 60.9014079,44.1936686 C59.3248211,44.1936686 57.8763619,43.7933261 56.7519345,43.1128473 C55.7425281,42.5019767 54.9886622,41.6656275 54.7227218,40.6853262 L54.7227218,40.6853262 L54.620988,39.8613982 L54.620988,8.68656413 C54.620988,7.53509428 55.3076138,6.52276712 56.3328474,5.77853845 C57.502044,4.92980541 59.1207748,4.41989746 60.9014079,4.41989746 Z" id="直线" stroke="#E58B00" stroke-width="2.13333333" fill="url(#linearGradient-28)" fill-rule="nonzero"></path>
                    </g>
                </g>
            </g>
        </g>
    </g>
</svg>