<?xml version="1.0" encoding="UTF-8"?>
<svg width="512px" height="512px" viewBox="0 0 512 512" version="1.1" xmlns="http://www.w3.org/2000/svg" xmlns:xlink="http://www.w3.org/1999/xlink">
    <title>apps/512/deepin-terminal</title>
    <defs>
        <filter x="-8.6%" y="-8.6%" width="117.3%" height="117.3%" filterUnits="objectBoundingBox" id="filter-1">
            <feOffset dx="0" dy="0" in="SourceAlpha" result="shadowOffsetOuter1"></feOffset>
            <feGaussianBlur stdDeviation="10.5" in="shadowOffsetOuter1" result="shadowBlurOuter1"></feGaussianBlur>
            <feColorMatrix values="0 0 0 0 0   0 0 0 0 0   0 0 0 0 0  0 0 0 0.2 0" type="matrix" in="shadowBlurOuter1" result="shadowMatrixOuter1"></feColorMatrix>
            <feMerge>
                <feMergeNode in="shadowMatrixOuter1"></feMergeNode>
                <feMergeNode in="SourceGraphic"></feMergeNode>
            </feMerge>
        </filter>
        <linearGradient x1="100%" y1="83.834358%" x2="0%" y2="83.834358%" id="linearGradient-2">
            <stop stop-color="#FF7B00" offset="0%"></stop>
            <stop stop-color="#FFCF51" offset="48.9873803%"></stop>
            <stop stop-color="#FF7B00" offset="100%"></stop>
        </linearGradient>
        <rect id="path-3" x="0" y="0" width="469.333333" height="469.333333" rx="81.2903226"></rect>
        <linearGradient x1="50%" y1="2.47644681%" x2="50%" y2="101.832334%" id="linearGradient-5">
            <stop stop-color="#FFE04F" offset="0%"></stop>
            <stop stop-color="#FFA000" offset="100%"></stop>
        </linearGradient>
        <rect id="path-6" x="0" y="-9.21212121" width="469.333333" height="448" rx="81.2903226"></rect>
        <filter x="-5.6%" y="-5.9%" width="111.3%" height="111.8%" filterUnits="objectBoundingBox" id="filter-7">
            <feGaussianBlur stdDeviation="16" in="SourceAlpha" result="shadowBlurInner1"></feGaussianBlur>
            <feOffset dx="0" dy="-21" in="shadowBlurInner1" result="shadowOffsetInner1"></feOffset>
            <feComposite in="shadowOffsetInner1" in2="SourceAlpha" operator="arithmetic" k2="-1" k3="1" result="shadowInnerInner1"></feComposite>
            <feColorMatrix values="0 0 0 0 1   0 0 0 0 0.91618783   0 0 0 0 0.649036538  0 0 0 1 0" type="matrix" in="shadowInnerInner1"></feColorMatrix>
        </filter>
        <linearGradient x1="67.8786644%" y1="50.4953453%" x2="-11.6965708%" y2="49.8039803%" id="linearGradient-8">
            <stop stop-color="#FFAC0D" offset="0%"></stop>
            <stop stop-color="#FF8202" offset="100%"></stop>
        </linearGradient>
        <linearGradient x1="16.0423245%" y1="49.2979502%" x2="83.5107462%" y2="50.6802374%" id="linearGradient-9">
            <stop stop-color="#FFFFFF" offset="0%"></stop>
            <stop stop-color="#FFF7D3" offset="100%"></stop>
        </linearGradient>
        <linearGradient x1="10.7988563%" y1="49.3972131%" x2="90.4955725%" y2="50.9388431%" id="linearGradient-10">
            <stop stop-color="#FFFFFF" offset="0%"></stop>
            <stop stop-color="#FFF7D3" offset="100%"></stop>
        </linearGradient>
        <path d="M141.322388,79.0402262 C141.322388,85.5373688 136.055413,90.8043435 129.558271,90.8043435 L-18.6164778,90.8043435 C-25.1136204,90.8043435 -30.3805951,85.5373688 -30.3805951,79.0402262 C-30.3805951,72.5430837 -25.1136204,67.276109 -18.6164778,67.276109 L129.558271,67.276109 C136.055413,67.276109 141.322388,72.5430837 141.322388,79.0402262 Z" id="path-11"></path>
        <filter x="-34.3%" y="-203.3%" width="168.5%" height="600.1%" filterUnits="objectBoundingBox" id="filter-13">
            <feMorphology radius="5.33333333" operator="dilate" in="SourceAlpha" result="shadowSpreadOuter1"></feMorphology>
            <feOffset dx="0" dy="11" in="shadowSpreadOuter1" result="shadowOffsetOuter1"></feOffset>
            <feGaussianBlur stdDeviation="16" in="shadowOffsetOuter1" result="shadowBlurOuter1"></feGaussianBlur>
            <feComposite in="shadowBlurOuter1" in2="SourceAlpha" operator="out" result="shadowBlurOuter1"></feComposite>
            <feColorMatrix values="0 0 0 0 1   0 0 0 0 0.603454163   0 0 0 0 0  0 0 0 1 0" type="matrix" in="shadowBlurOuter1"></feColorMatrix>
        </filter>
        <linearGradient x1="58.7256999%" y1="76.380624%" x2="19.8889273%" y2="39.5605738%" id="linearGradient-14">
            <stop stop-color="#FFAC0D" offset="0%"></stop>
            <stop stop-color="#FF8202" offset="100%"></stop>
        </linearGradient>
        <linearGradient x1="33.4269227%" y1="12.6109086%" x2="66.354953%" y2="86.2274307%" id="linearGradient-15">
            <stop stop-color="#FFFFFF" offset="0%"></stop>
            <stop stop-color="#FFF7D3" offset="100%"></stop>
        </linearGradient>
        <linearGradient x1="30.8678428%" y1="17.8973554%" x2="69.7639044%" y2="100%" id="linearGradient-16">
            <stop stop-color="#FFFFFF" offset="0%"></stop>
            <stop stop-color="#FFF7D3" offset="100%"></stop>
        </linearGradient>
        <path d="M5.35322742,3.41636319 L6.49204798,2.6245568 C11.8064598,-1.07048119 18.9147683,-0.844672706 23.9839424,3.18021898 L89.5360469,55.2281697 C95.8794711,60.2648078 96.9388305,69.4901711 91.9021923,75.8335953 C91.1885106,76.7324461 90.3717841,77.5444142 89.4687786,78.2528317 L18.9261865,133.594249 C13.8878786,137.546855 6.61381908,136.745098 2.5573253,131.79005 C-1.39699628,126.959806 -0.68692108,119.838509 4.14332266,115.884187 C4.20015712,115.837659 4.25744377,115.791686 4.31517444,115.746275 L66.5557396,66.7874923 L66.5557396,66.7874923 L4.90413547,18.0545058 C0.95391572,14.9320241 0.282901451,9.19846676 3.40538315,5.24824702 C3.96110563,4.54520817 4.61744418,3.92794323 5.35322742,3.41636319 Z" id="path-17"></path>
        <filter x="-61.9%" y="-35.1%" width="223.8%" height="186.5%" filterUnits="objectBoundingBox" id="filter-19">
            <feMorphology radius="5.33333333" operator="dilate" in="SourceAlpha" result="shadowSpreadOuter1"></feMorphology>
            <feOffset dx="0" dy="11" in="shadowSpreadOuter1" result="shadowOffsetOuter1"></feOffset>
            <feGaussianBlur stdDeviation="16" in="shadowOffsetOuter1" result="shadowBlurOuter1"></feGaussianBlur>
            <feComposite in="shadowBlurOuter1" in2="SourceAlpha" operator="out" result="shadowBlurOuter1"></feComposite>
            <feColorMatrix values="0 0 0 0 1   0 0 0 0 0.603454163   0 0 0 0 0  0 0 0 1 0" type="matrix" in="shadowBlurOuter1"></feColorMatrix>
        </filter>
        <path d="M5.35322742,3.41636319 L6.49204798,2.6245568 C11.8064598,-1.07048119 18.9147683,-0.844672706 23.9839424,3.18021898 L89.5360469,55.2281697 C95.8794711,60.2648078 96.9388305,69.4901711 91.9021923,75.8335953 C91.1885106,76.7324461 90.3717841,77.5444142 89.4687786,78.2528317 L18.9261865,133.594249 C13.8878786,137.546855 6.61381908,136.745098 2.5573253,131.79005 C-1.39699628,126.959806 -0.68692108,119.838509 4.14332266,115.884187 C4.20015712,115.837659 4.25744377,115.791686 4.31517444,115.746275 L66.5557396,66.7874923 L66.5557396,66.7874923 L4.90413547,18.0545058 C0.95391572,14.9320241 0.282901451,9.19846676 3.40538315,5.24824702 C3.96110563,4.54520817 4.61744418,3.92794323 5.35322742,3.41636319 Z" id="path-20"></path>
        <filter x="-61.9%" y="-35.1%" width="223.8%" height="186.5%" filterUnits="objectBoundingBox" id="filter-22">
            <feMorphology radius="5.33333333" operator="dilate" in="SourceAlpha" result="shadowSpreadOuter1"></feMorphology>
            <feOffset dx="0" dy="11" in="shadowSpreadOuter1" result="shadowOffsetOuter1"></feOffset>
            <feGaussianBlur stdDeviation="16" in="shadowOffsetOuter1" result="shadowBlurOuter1"></feGaussianBlur>
            <feComposite in="shadowBlurOuter1" in2="SourceAlpha" operator="out" result="shadowBlurOuter1"></feComposite>
            <feColorMatrix values="0 0 0 0 1   0 0 0 0 0.603454163   0 0 0 0 0  0 0 0 1 0" type="matrix" in="shadowBlurOuter1"></feColorMatrix>
        </filter>
    </defs>
    <g id="apps/512/deepin-terminal" stroke="none" stroke-width="1" fill="none" fill-rule="evenodd">
        <g id="终端" filter="url(#filter-1)" transform="translate(21.333333, 21.333333)">
            <g id="编组-3">
                <mask id="mask-4" fill="white">
                    <use xlink:href="#path-3"></use>
                </mask>
                <use id="蒙版" fill="url(#linearGradient-2)" xlink:href="#path-3"></use>
                <g id="矩形" mask="url(#mask-4)">
                    <use fill="url(#linearGradient-5)" fill-rule="evenodd" xlink:href="#path-6"></use>
                    <use fill="black" fill-opacity="1" filter="url(#filter-7)" xlink:href="#path-6"></use>
                </g>
            </g>
            <path d="M90.6666667,362.666667 C93.6121853,362.666667 96,365.054481 96,368 L96,378.666667 C96,381.612185 93.6121853,384 90.6666667,384 L80,384 C77.0544813,384 74.6666667,381.612185 74.6666667,378.666667 L74.6666667,368 C74.6666667,365.054481 77.0544813,362.666667 80,362.666667 L90.6666667,362.666667 Z M154.666667,320 C157.612185,320 160,322.387815 160,325.333333 L160,336 C160,338.945519 157.612185,341.333333 154.666667,341.333333 L122.666667,341.333333 C119.721148,341.333333 117.333333,338.945519 117.333333,336 L117.333333,325.333333 C117.333333,322.387815 119.721148,320 122.666667,320 L154.666667,320 Z M218.666667,320 C221.612185,320 224,322.387815 224,325.333333 L224,336 C224,338.945519 221.612185,341.333333 218.666667,341.333333 L186.666667,341.333333 C183.721148,341.333333 181.333333,338.945519 181.333333,336 L181.333333,325.333333 C181.333333,322.387815 183.721148,320 186.666667,320 L218.666667,320 Z M261.333333,320 C264.278852,320 266.666667,322.387815 266.666667,325.333333 L266.666667,336 C266.666667,338.945519 264.278852,341.333333 261.333333,341.333333 L250.666667,341.333333 C247.721148,341.333333 245.333333,338.945519 245.333333,336 L245.333333,325.333333 C245.333333,322.387815 247.721148,320 250.666667,320 L261.333333,320 Z M90.6666667,320 C93.6121853,320 96,322.387815 96,325.333333 L96,336 C96,338.945519 93.6121853,341.333333 90.6666667,341.333333 L80,341.333333 C77.0544813,341.333333 74.6666667,338.945519 74.6666667,336 L74.6666667,325.333333 C74.6666667,322.387815 77.0544813,320 80,320 L90.6666667,320 Z M90.6666667,277.333333 C93.6121853,277.333333 96,279.721148 96,282.666667 L96,293.333333 C96,296.278852 93.6121853,298.666667 90.6666667,298.666667 L80,298.666667 C77.0544813,298.666667 74.6666667,296.278852 74.6666667,293.333333 L74.6666667,282.666667 C74.6666667,279.721148 77.0544813,277.333333 80,277.333333 L90.6666667,277.333333 Z M133.333333,277.333333 C136.278852,277.333333 138.666667,279.721148 138.666667,282.666667 L138.666667,293.333333 C138.666667,296.278852 136.278852,298.666667 133.333333,298.666667 L122.666667,298.666667 C119.721148,298.666667 117.333333,296.278852 117.333333,293.333333 L117.333333,282.666667 C117.333333,279.721148 119.721148,277.333333 122.666667,277.333333 L133.333333,277.333333 Z M240,277.333333 C242.945519,277.333333 245.333333,279.721148 245.333333,282.666667 L245.333333,293.333333 C245.333333,296.278852 242.945519,298.666667 240,298.666667 L165.333333,298.666667 C162.387815,298.666667 160,296.278852 160,293.333333 L160,282.666667 C160,279.721148 162.387815,277.333333 165.333333,277.333333 L240,277.333333 Z M90.6666667,234.666667 C93.6121853,234.666667 96,237.054481 96,240 L96,250.666667 C96,253.612185 93.6121853,256 90.6666667,256 L80,256 C77.0544813,256 74.6666667,253.612185 74.6666667,250.666667 L74.6666667,240 C74.6666667,237.054481 77.0544813,234.666667 80,234.666667 L90.6666667,234.666667 Z M133.333333,234.666667 C136.278852,234.666667 138.666667,237.054481 138.666667,240 L138.666667,250.666667 C138.666667,253.612185 136.278852,256 133.333333,256 L122.666667,256 C119.721148,256 117.333333,253.612185 117.333333,250.666667 L117.333333,240 C117.333333,237.054481 119.721148,234.666667 122.666667,234.666667 L133.333333,234.666667 Z M197.333333,234.666667 C200.278852,234.666667 202.666667,237.054481 202.666667,240 L202.666667,250.666667 C202.666667,253.612185 200.278852,256 197.333333,256 L165.333333,256 C162.387815,256 160,253.612185 160,250.666667 L160,240 C160,237.054481 162.387815,234.666667 165.333333,234.666667 L197.333333,234.666667 Z M368,234.666667 C370.945519,234.666667 373.333333,237.054481 373.333333,240 L373.333333,250.666667 C373.333333,253.612185 370.945519,256 368,256 L336,256 C333.054481,256 330.666667,253.612185 330.666667,250.666667 L330.666667,240 C330.666667,237.054481 333.054481,234.666667 336,234.666667 L368,234.666667 Z M304,234.666667 C306.945519,234.666667 309.333333,237.054481 309.333333,240 L309.333333,250.666667 C309.333333,253.612185 306.945519,256 304,256 L229.333333,256 C226.387815,256 224,253.612185 224,250.666667 L224,240 C224,237.054481 226.387815,234.666667 229.333333,234.666667 L304,234.666667 Z M90.6666667,192 C93.6121853,192 96,194.387815 96,197.333333 L96,208 C96,210.945519 93.6121853,213.333333 90.6666667,213.333333 L80,213.333333 C77.0544813,213.333333 74.6666667,210.945519 74.6666667,208 L74.6666667,197.333333 C74.6666667,194.387815 77.0544813,192 80,192 L90.6666667,192 Z M218.666667,192 C221.612185,192 224,194.387815 224,197.333333 L224,208 C224,210.945519 221.612185,213.333333 218.666667,213.333333 L122.666667,213.333333 C119.721148,213.333333 117.333333,210.945519 117.333333,208 L117.333333,197.333333 C117.333333,194.387815 119.721148,192 122.666667,192 L218.666667,192 Z M325.333333,192 C328.278852,192 330.666667,194.387815 330.666667,197.333333 L330.666667,208 C330.666667,210.945519 328.278852,213.333333 325.333333,213.333333 L250.666667,213.333333 C247.721148,213.333333 245.333333,210.945519 245.333333,208 L245.333333,197.333333 C245.333333,194.387815 247.721148,192 250.666667,192 L325.333333,192 Z M90.6666667,149.333333 C93.6121853,149.333333 96,151.721148 96,154.666667 L96,165.333333 C96,168.278852 93.6121853,170.666667 90.6666667,170.666667 L80,170.666667 C77.0544813,170.666667 74.6666667,168.278852 74.6666667,165.333333 L74.6666667,154.666667 C74.6666667,151.721148 77.0544813,149.333333 80,149.333333 L90.6666667,149.333333 Z M133.333333,149.333333 C136.278852,149.333333 138.666667,151.721148 138.666667,154.666667 L138.666667,165.333333 C138.666667,168.278852 136.278852,170.666667 133.333333,170.666667 L122.666667,170.666667 C119.721148,170.666667 117.333333,168.278852 117.333333,165.333333 L117.333333,154.666667 C117.333333,151.721148 119.721148,149.333333 122.666667,149.333333 L133.333333,149.333333 Z M197.333333,149.333333 C200.278852,149.333333 202.666667,151.721148 202.666667,154.666667 L202.666667,165.333333 C202.666667,168.278852 200.278852,170.666667 197.333333,170.666667 L165.333333,170.666667 C162.387815,170.666667 160,168.278852 160,165.333333 L160,154.666667 C160,151.721148 162.387815,149.333333 165.333333,149.333333 L197.333333,149.333333 Z M389.333333,149.333333 C392.278852,149.333333 394.666667,151.721148 394.666667,154.666667 L394.666667,165.333333 C394.666667,168.278852 392.278852,170.666667 389.333333,170.666667 L357.333333,170.666667 C354.387815,170.666667 352,168.278852 352,165.333333 L352,154.666667 C352,151.721148 354.387815,149.333333 357.333333,149.333333 L389.333333,149.333333 Z M325.333333,149.333333 C328.278852,149.333333 330.666667,151.721148 330.666667,154.666667 L330.666667,165.333333 C330.666667,168.278852 328.278852,170.666667 325.333333,170.666667 L229.333333,170.666667 C226.387815,170.666667 224,168.278852 224,165.333333 L224,154.666667 C224,151.721148 226.387815,149.333333 229.333333,149.333333 L325.333333,149.333333 Z M90.6666667,106.666667 C93.6121853,106.666667 96,109.054481 96,112 L96,122.666667 C96,125.612185 93.6121853,128 90.6666667,128 L80,128 C77.0544813,128 74.6666667,125.612185 74.6666667,122.666667 L74.6666667,112 C74.6666667,109.054481 77.0544813,106.666667 80,106.666667 L90.6666667,106.666667 Z M261.333333,106.666667 C264.278852,106.666667 266.666667,109.054481 266.666667,112 L266.666667,122.666667 C266.666667,125.612185 264.278852,128 261.333333,128 L250.666667,128 C247.721148,128 245.333333,125.612185 245.333333,122.666667 L245.333333,112 C245.333333,109.054481 247.721148,106.666667 250.666667,106.666667 L261.333333,106.666667 Z M154.666667,106.666667 C157.612185,106.666667 160,109.054481 160,112 L160,122.666667 C160,125.612185 157.612185,128 154.666667,128 L122.666667,128 C119.721148,128 117.333333,125.612185 117.333333,122.666667 L117.333333,112 C117.333333,109.054481 119.721148,106.666667 122.666667,106.666667 L154.666667,106.666667 Z M218.666667,106.666667 C221.612185,106.666667 224,109.054481 224,112 L224,122.666667 C224,125.612185 221.612185,128 218.666667,128 L186.666667,128 C183.721148,128 181.333333,125.612185 181.333333,122.666667 L181.333333,112 C181.333333,109.054481 183.721148,106.666667 186.666667,106.666667 L218.666667,106.666667 Z M90.6666667,64 C93.6121853,64 96,66.3878147 96,69.3333333 L96,80 C96,82.9455187 93.6121853,85.3333333 90.6666667,85.3333333 L80,85.3333333 C77.0544813,85.3333333 74.6666667,82.9455187 74.6666667,80 L74.6666667,69.3333333 C74.6666667,66.3878147 77.0544813,64 80,64 L90.6666667,64 Z" id="形状结合" fill="#FFE383"></path>
            <g id="编组备份" transform="translate(49.506798, 147.162561)">
                <g id="编组备份-3" transform="translate(180.901956, 80.927983) scale(-1, 1) rotate(2.000000) translate(-180.901956, -80.927983) translate(125.431059, 1.887757)">
                    <mask id="mask-12" fill="white">
                        <use xlink:href="#path-11"></use>
                    </mask>
                    <g id="蒙版" fill-rule="nonzero" transform="translate(55.470896, 79.040226) rotate(58.000000) translate(-55.470896, -79.040226) ">
                        <use fill="black" fill-opacity="1" filter="url(#filter-13)" xlink:href="#path-11"></use>
                        <use fill="url(#linearGradient-8)" xlink:href="#path-11"></use>
                        <use stroke="url(#linearGradient-10)" stroke-width="10.6666667" fill="url(#linearGradient-9)" xlink:href="#path-11"></use>
                    </g>
                </g>
                <g id="路径-3备份-4" transform="translate(47.541483, 78.258167) scale(-1, 1) translate(-47.541483, -78.258167) translate(0.000000, 10.206287)">
                    <mask id="mask-18" fill="white">
                        <use xlink:href="#path-17"></use>
                    </mask>
                    <g id="蒙版" fill-rule="nonzero">
                        <use fill="black" fill-opacity="1" filter="url(#filter-19)" xlink:href="#path-17"></use>
                        <use fill="url(#linearGradient-14)" xlink:href="#path-17"></use>
                        <use stroke="url(#linearGradient-16)" stroke-width="10.6666667" fill="url(#linearGradient-15)" xlink:href="#path-17"></use>
                    </g>
                </g>
                <g id="路径-3备份-5" transform="translate(275.236770, 10.206287)">
                    <mask id="mask-21" fill="white">
                        <use xlink:href="#path-20"></use>
                    </mask>
                    <g id="蒙版" fill-rule="nonzero">
                        <use fill="black" fill-opacity="1" filter="url(#filter-22)" xlink:href="#path-20"></use>
                        <use fill="url(#linearGradient-14)" xlink:href="#path-20"></use>
                        <use stroke="url(#linearGradient-16)" stroke-width="10.6666667" fill="url(#linearGradient-15)" xlink:href="#path-20"></use>
                    </g>
                </g>
            </g>
        </g>
    </g>
</svg>