<?xml version="1.0" encoding="UTF-8" standalone="no"?>
<svg
   width="512px"
   height="512px"
   viewBox="0 0 512 512"
   version="1.1"
   id="svg29"
   sodipodi:docname="folder_html.svg"
   xml:space="preserve"
   inkscape:version="1.4.2 (ebf0e940d0, 2025-05-08)"
   xmlns:inkscape="http://www.inkscape.org/namespaces/inkscape"
   xmlns:sodipodi="http://sodipodi.sourceforge.net/DTD/sodipodi-0.dtd"
   xmlns:xlink="http://www.w3.org/1999/xlink"
   xmlns="http://www.w3.org/2000/svg"
   xmlns:svg="http://www.w3.org/2000/svg"
   xmlns:rdf="http://www.w3.org/1999/02/22-rdf-syntax-ns#"
   xmlns:cc="http://creativecommons.org/ns#"
   xmlns:dc="http://purl.org/dc/elements/1.1/"><sodipodi:namedview
     id="namedview29"
     pagecolor="#ffffff"
     bordercolor="#000000"
     borderopacity="0.25"
     inkscape:showpageshadow="2"
     inkscape:pageopacity="0.0"
     inkscape:pagecheckerboard="0"
     inkscape:deskcolor="#d1d1d1"
     inkscape:zoom="0.71875"
     inkscape:cx="295.65217"
     inkscape:cy="253.21739"
     inkscape:window-width="1707"
     inkscape:window-height="987"
     inkscape:window-x="0"
     inkscape:window-y="0"
     inkscape:window-maximized="1"
     inkscape:current-layer="svg29" /><title
     id="title1">places/512/folder-open</title><defs
     id="defs16"><linearGradient
       id="linearGradient29"
       inkscape:collect="always"><stop
         style="stop-color:#af520a;stop-opacity:0.77254903"
         offset="0"
         id="stop29" /><stop
         style="stop-color:#f79e0c;stop-opacity:1"
         offset="1"
         id="stop30" /></linearGradient><filter
       x="-0.10227273"
       y="-0.093292683"
       width="1.2045455"
       height="1.2121951"
       filterUnits="objectBoundingBox"
       id="filter-1"><feOffset
         dx="0"
         dy="0"
         in="SourceAlpha"
         result="shadowOffsetOuter1"
         id="feOffset1" /><feGaussianBlur
         stdDeviation="10"
         in="shadowOffsetOuter1"
         result="shadowBlurOuter1"
         id="feGaussianBlur1" /><feColorMatrix
         values="0 0 0 0 0   0 0 0 0 0   0 0 0 0 0  0 0 0 0.2 0"
         type="matrix"
         in="shadowBlurOuter1"
         result="shadowMatrixOuter1"
         id="feColorMatrix1" /><feMerge
         id="feMerge2"><feMergeNode
           in="shadowMatrixOuter1"
           id="feMergeNode1" /><feMergeNode
           in="SourceGraphic"
           id="feMergeNode2" /></feMerge></filter><path
       d="M362.666667,0 C386.230816,-2.52578329e-14 405.333333,19.1025173 405.333333,42.6666667 L405.333,64 L458.666667,64 L458.666667,288 C458.666667,311.564149 439.564149,330.666667 416,330.666667 L42.6666667,330.666667 C19.1025173,330.666667 9.99120336e-15,311.564149 0,288 L0,106.666667 C-2.885776e-15,83.1025173 19.1025173,64 42.6666667,64 L196.266,64 L222.237758,20.7148478 C229.948617,7.86341691 243.836908,2.40693888e-14 258.824123,0 L362.666667,0 Z"
       id="path-2" /><filter
       x="0"
       y="0"
       width="1"
       height="1.0120968"
       filterUnits="objectBoundingBox"
       id="filter-3"><feOffset
         dx="0"
         dy="4"
         in="SourceAlpha"
         result="shadowOffsetInner1"
         id="feOffset2" /><feComposite
         in="shadowOffsetInner1"
         in2="SourceAlpha"
         operator="arithmetic"
         k2="-1"
         k3="1"
         result="shadowInnerInner1"
         id="feComposite2" /><feColorMatrix
         values="0 0 0 0 1   0 0 0 0 1   0 0 0 0 1  0 0 0 0.5 0"
         type="matrix"
         in="shadowInnerInner1"
         id="feColorMatrix2" /></filter><linearGradient
       x1="50%"
       y1="0%"
       x2="50%"
       y2="100%"
       id="linearGradient-4"><stop
         stop-color="#0082F9"
         offset="0%"
         id="stop2" /><stop
         stop-color="#A4D9FF"
         offset="100%"
         id="stop3" /></linearGradient><path
       d="M256,0 C279.564149,-2.52578329e-14 298.666667,19.1025173 298.666667,42.6666667 L298.666,64 L458.666667,64 L458.666667,288 C458.666667,311.564149 439.564149,330.666667 416,330.666667 L42.6666667,330.666667 C19.1025173,330.666667 9.99120336e-15,311.564149 0,288 L0,106.666667 C-2.885776e-15,83.1025173 19.1025173,64 42.6666667,64 L89.6,64 L115.571091,20.7148478 C123.28195,7.86341691 137.170241,2.40693888e-14 152.157456,0 L256,0 Z"
       id="path-5" /><filter
       x="-0.010465116"
       y="-0.050806452"
       width="1.0209302"
       height="1.0774194"
       filterUnits="objectBoundingBox"
       id="filter-6"><feOffset
         dx="0"
         dy="4"
         in="SourceAlpha"
         result="shadowOffsetInner1"
         id="feOffset3" /><feComposite
         in="shadowOffsetInner1"
         in2="SourceAlpha"
         operator="arithmetic"
         k2="-1"
         k3="1"
         result="shadowInnerInner1"
         id="feComposite3" /><feColorMatrix
         values="0 0 0 0 1   0 0 0 0 1   0 0 0 0 1  0 0 0 0.5 0"
         type="matrix"
         in="shadowInnerInner1"
         result="shadowMatrixInner1"
         id="feColorMatrix3" /><feGaussianBlur
         stdDeviation="2"
         in="SourceAlpha"
         result="shadowBlurInner2"
         id="feGaussianBlur3" /><feOffset
         dx="0"
         dy="-12"
         in="shadowBlurInner2"
         result="shadowOffsetInner2"
         id="feOffset4" /><feComposite
         in="shadowOffsetInner2"
         in2="SourceAlpha"
         operator="arithmetic"
         k2="-1"
         k3="1"
         result="shadowInnerInner2"
         id="feComposite4" /><feColorMatrix
         values="0 0 0 0 0.267949911   0 0 0 0 0.622597129   0 0 0 0 0.893797944  0 0 0 1 0"
         type="matrix"
         in="shadowInnerInner2"
         result="shadowMatrixInner2"
         id="feColorMatrix4" /><feMerge
         id="feMerge5"><feMergeNode
           in="shadowMatrixInner1"
           id="feMergeNode4" /><feMergeNode
           in="shadowMatrixInner2"
           id="feMergeNode5" /></feMerge></filter><linearGradient
       x1="50%"
       y1="3.51108691%"
       x2="50%"
       y2="60.5004968%"
       id="linearGradient-7"><stop
         stop-color="#F9A010"
         offset="0%"
         id="stop5" /><stop
         stop-color="#CB7701"
         offset="100%"
         id="stop6" /></linearGradient><path
       d="M0,42.6666667 C-9.99120336e-15,19.1025173 19.1025173,1.14340914e-14 42.6666667,0 L123.05289,0 C127.731537,-1.15175946e-14 132.280445,1.53805436 135.999098,4.37730794 L172.178,32 L405.333333,32 C440.679557,32 469.333333,60.653776 469.333333,96 L469.333333,362.666667 C469.333333,398.012891 440.679557,426.666667 405.333333,426.666667 L64,426.666667 C28.653776,426.666667 2.861699e-14,398.012891 0,362.666667 L0,42.6666667 Z"
       id="path-8" /><filter
       x="-0.0085227273"
       y="0"
       width="1.0085227"
       height="1.009375"
       filterUnits="objectBoundingBox"
       id="filter-9"><feOffset
         dx="-4"
         dy="4"
         in="SourceAlpha"
         result="shadowOffsetInner1"
         id="feOffset6" /><feComposite
         in="shadowOffsetInner1"
         in2="SourceAlpha"
         operator="arithmetic"
         k2="-1"
         k3="1"
         result="shadowInnerInner1"
         id="feComposite6" /><feColorMatrix
         values="0 0 0 0 1   0 0 0 0 0.810890665   0 0 0 0 0.547982565  0 0 0 1 0"
         type="matrix"
         in="shadowInnerInner1"
         id="feColorMatrix6" /></filter><radialGradient
       cx="27.7048929%"
       cy="10.6803319%"
       fx="27.7048929%"
       fy="10.6803319%"
       r="101.027773%"
       gradientTransform="translate(0.277049,0.106803),scale(0.888889,1.000000),rotate(46.994398),translate(-0.277049,-0.106803)"
       id="radialGradient-10"><stop
         stop-color="#FFFFFF"
         stop-opacity="0.978986833"
         offset="0%"
         id="stop7" /><stop
         stop-color="#FFFFFF"
         offset="100%"
         id="stop8" /></radialGradient><rect
       id="path-11"
       x="42.6666667"
       y="51.1390476"
       width="384"
       height="341.333333"
       rx="42.6666667" /><filter
       x="0"
       y="0"
       width="1"
       height="1.0117187"
       filterUnits="objectBoundingBox"
       id="filter-12"><feOffset
         dx="0"
         dy="4"
         in="SourceAlpha"
         result="shadowOffsetInner1"
         id="feOffset8" /><feComposite
         in="shadowOffsetInner1"
         in2="SourceAlpha"
         operator="arithmetic"
         k2="-1"
         k3="1"
         result="shadowInnerInner1"
         id="feComposite8" /><feColorMatrix
         values="0 0 0 0 1   0 0 0 0 1   0 0 0 0 1  0 0 0 0.675356138 0"
         type="matrix"
         in="shadowInnerInner1"
         id="feColorMatrix8" /></filter><radialGradient
       cx="27.7048929%"
       cy="10.6803319%"
       fx="27.7048929%"
       fy="10.6803319%"
       r="115.445275%"
       gradientTransform="translate(0.277049,0.106803),scale(0.690476,1.000000),rotate(39.788798),translate(-0.277049,-0.106803)"
       id="radialGradient-13"><stop
         stop-color="#FFFFFF"
         stop-opacity="0.978986833"
         offset="0%"
         id="stop9" /><stop
         stop-color="#FFFFFF"
         offset="100%"
         id="stop10" /></radialGradient><rect
       id="path-14"
       x="10.6666667"
       y="72.472381"
       width="448"
       height="309.333333"
       rx="42.6666667" /><filter
       x="-0.032142857"
       y="-0.085344825"
       width="1.0642857"
       height="1.1318965"
       filterUnits="objectBoundingBox"
       id="filter-15"><feOffset
         dx="0"
         dy="-12"
         in="SourceAlpha"
         result="shadowOffsetOuter1"
         id="feOffset10" /><feGaussianBlur
         stdDeviation="6"
         in="shadowOffsetOuter1"
         result="shadowBlurOuter1"
         id="feGaussianBlur10" /><feComposite
         in="shadowBlurOuter1"
         in2="SourceAlpha"
         operator="out"
         result="shadowBlurOuter1"
         id="feComposite10" /><feColorMatrix
         values="0 0 0 0 0.788235294   0 0 0 0 0.466666667   0 0 0 0 0.0196078431  0 0 0 0.2 0"
         type="matrix"
         in="shadowBlurOuter1"
         id="feColorMatrix10" /></filter><filter
       x="0"
       y="0"
       width="1"
       height="1.012931"
       filterUnits="objectBoundingBox"
       id="filter-16"><feOffset
         dx="0"
         dy="4"
         in="SourceAlpha"
         result="shadowOffsetInner1"
         id="feOffset11" /><feComposite
         in="shadowOffsetInner1"
         in2="SourceAlpha"
         operator="arithmetic"
         k2="-1"
         k3="1"
         result="shadowInnerInner1"
         id="feComposite11" /><feColorMatrix
         values="0 0 0 0 1   0 0 0 0 1   0 0 0 0 1  0 0 0 0.675356138 0"
         type="matrix"
         in="shadowInnerInner1"
         id="feColorMatrix11" /></filter><linearGradient
       x1="50%"
       y1="11.7199853%"
       x2="50%"
       y2="34.9657571%"
       id="linearGradient-17"><stop
         stop-color="#B7C2D2"
         stop-opacity="0"
         offset="0%"
         id="stop11" /><stop
         stop-color="#C97806"
         offset="100%"
         id="stop12" /></linearGradient><linearGradient
       x1="50%"
       y1="0%"
       x2="50%"
       y2="100%"
       id="linearGradient-18"><stop
         stop-color="#FFE167"
         offset="0%"
         id="stop13" /><stop
         stop-color="#F9BF53"
         offset="100%"
         id="stop14" /></linearGradient><path
       d="M42.6666667,96 L426.666667,96 C450.230816,96 469.333333,115.102517 469.333333,138.666667 L469.333333,373.333333 C469.333333,408.679557 440.679557,437.333333 405.333333,437.333333 L64,437.333333 C28.653776,437.333333 3.57224174e-14,408.679557 0,373.333333 L0,138.666667 C-2.885776e-15,115.102517 19.1025173,96 42.6666667,96 Z"
       id="path-19" /><filter
       x="-0.051136364"
       y="-0.10546875"
       width="1.1022727"
       height="1.1875"
       filterUnits="objectBoundingBox"
       id="filter-21"><feOffset
         dx="0"
         dy="4"
         in="SourceAlpha"
         result="shadowOffsetInner1"
         id="feOffset14" /><feComposite
         in="shadowOffsetInner1"
         in2="SourceAlpha"
         operator="arithmetic"
         k2="-1"
         k3="1"
         result="shadowInnerInner1"
         id="feComposite14" /><feColorMatrix
         values="0 0 0 0 1   0 0 0 0 1   0 0 0 0 1  0 0 0 0.5 0"
         type="matrix"
         in="shadowInnerInner1"
         result="shadowMatrixInner1"
         id="feColorMatrix14" /><feGaussianBlur
         stdDeviation="10"
         in="SourceAlpha"
         result="shadowBlurInner2"
         id="feGaussianBlur14" /><feOffset
         dx="0"
         dy="-12"
         in="shadowBlurInner2"
         result="shadowOffsetInner2"
         id="feOffset15" /><feComposite
         in="shadowOffsetInner2"
         in2="SourceAlpha"
         operator="arithmetic"
         k2="-1"
         k3="1"
         result="shadowInnerInner2"
         id="feComposite15" /><feColorMatrix
         values="0 0 0 0 0.733333333   0 0 0 0 0.403921569   0 0 0 0 0.0235294118  0 0 0 0.433240344 0"
         type="matrix"
         in="shadowInnerInner2"
         result="shadowMatrixInner2"
         id="feColorMatrix15" /><feMerge
         id="feMerge16"><feMergeNode
           in="shadowMatrixInner1"
           id="feMergeNode15" /><feMergeNode
           in="shadowMatrixInner2"
           id="feMergeNode16" /></feMerge></filter><linearGradient
       inkscape:collect="always"
       xlink:href="#linearGradient29"
       id="linearGradient30"
       x1="132.17392"
       y1="392.34781"
       x2="205.91306"
       y2="268.52173"
       gradientUnits="userSpaceOnUse" /></defs><g
     id="places/512/folder-open"
     stroke="none"
     stroke-width="1"
     fill="none"
     fill-rule="evenodd"><g
       id="文件夹备份"
       filter="url(#filter-1)"
       transform="translate(21.333333, 32.000000)"><g
         id="形状结合"><use
           fill="#FF4655"
           fill-rule="evenodd"
           xlink:href="#path-2"
           id="use16" /><use
           fill="black"
           fill-opacity="1"
           filter="url(#filter-3)"
           xlink:href="#path-2"
           id="use17" /></g><g
         id="g19"><use
           fill="url(#linearGradient-4)"
           fill-rule="evenodd"
           xlink:href="#path-5"
           id="use18" /><use
           fill="black"
           fill-opacity="1"
           filter="url(#filter-6)"
           xlink:href="#path-5"
           id="use19" /></g><g
         id="g21"><use
           fill="url(#linearGradient-7)"
           fill-rule="evenodd"
           xlink:href="#path-8"
           id="use20" /><use
           fill="black"
           fill-opacity="1"
           filter="url(#filter-9)"
           xlink:href="#path-8"
           id="use21" /></g><g
         id="矩形"
         fill-rule="nonzero"><use
           fill="url(#radialGradient-10)"
           xlink:href="#path-11"
           id="use22" /><use
           fill="black"
           fill-opacity="1"
           filter="url(#filter-12)"
           xlink:href="#path-11"
           id="use23" /></g><g
         id="g26"
         fill-rule="nonzero"><use
           fill="black"
           fill-opacity="1"
           filter="url(#filter-15)"
           xlink:href="#path-14"
           id="use24" /><use
           fill="url(#radialGradient-13)"
           xlink:href="#path-14"
           id="use25" /><use
           fill="black"
           fill-opacity="1"
           filter="url(#filter-16)"
           xlink:href="#path-14"
           id="use26" /></g><polygon
         id="polygon26"
         fill="url(#linearGradient-17)"
         style="mix-blend-mode: multiply;"
         points="-3.90798505e-14 68.0228571 469.333333 68.0228571 469.333333 196.022857 -3.90798505e-14 196.022857" /><mask
         id="mask-20"
         fill="white"><use
           xlink:href="#path-19"
           id="use27" /></mask><g
         id="蒙版"><use
           fill="url(#linearGradient-18)"
           fill-rule="evenodd"
           xlink:href="#path-19"
           id="use28" /><use
           fill="black"
           fill-opacity="1"
           filter="url(#filter-21)"
           xlink:href="#path-19"
           id="use29" /></g></g></g><path
     d="m 255.65217,189.89611 q 21.66332,0 40.75829,8.26239 19.09498,8.26239 33.27663,22.44243 14.18165,14.18006 22.44498,33.27286 8.26332,19.09282 8.26332,40.75368 0,21.88416 -8.26332,40.97697 -8.26333,19.09282 -22.44498,33.27288 -14.18165,14.18003 -33.27663,22.44242 -19.09497,8.2624 -40.75829,8.2624 -21.66331,0 -40.75828,-8.2624 -19.09498,-8.26239 -33.27663,-22.44242 -14.18165,-14.18006 -22.44498,-33.27288 -8.26332,-19.09281 -8.26332,-40.97697 0,-21.66086 8.26332,-40.75368 8.26333,-19.0928 22.44498,-33.27286 14.18165,-14.18004 33.27663,-22.44243 19.09497,-8.26239 40.75828,-8.26239 z m 28.58665,133.76137 q 0.66999,-0.89323 -0.67001,-2.23308 -1.33999,-1.33984 -3.12666,-3.01464 -1.78666,-1.67483 -3.12666,-3.46128 -1.34,-1.78647 -0.89333,-3.34962 1.11666,-3.57293 0.78166,-5.24773 -0.335,-1.67481 -2.12167,-2.23307 -1.78666,-0.55828 -5.13666,-0.44663 -3.34999,0.11166 -8.03998,0.11166 -2.45667,0 -4.02,0.22329 -1.56333,0.22331 -2.90333,0.33496 -1.33999,0.11166 -2.90333,0.22332 -1.56334,0.11166 -3.57334,-0.11165 -3.12666,-0.22331 -4.80165,-1.11652 -1.675,-0.89325 -3.12666,-1.78648 -1.45167,-0.89323 -3.68501,-1.56315 -2.23333,-0.66992 -6.47665,-0.89323 -6.02999,-0.22332 -8.59832,-0.55828 -2.56834,-0.33496 -3.68501,-0.66992 -1.11666,-0.33496 -1.78665,-0.44661 -0.67,-0.11165 -2.68,-0.11165 -2.01,0.2233 -6.14166,2.00977 -4.13167,1.78645 -8.37499,4.13119 -4.24333,2.34472 -7.36999,4.80111 -3.12667,2.45638 -3.12667,4.01954 0,4.46615 0.55833,7.14585 0.55833,2.67969 1.56334,4.13121 1.005,1.45148 2.12166,2.34472 1.11667,0.89323 2.23333,2.00976 1.11667,1.11656 3.015,1.56316 1.89833,0.44662 4.13166,0.55827 2.23334,0.11165 4.13166,0.55828 1.89833,0.44661 3.01499,1.56315 2.23334,2.6797 4.69,2.23308 2.45667,-0.44662 4.355,-1.45151 1.89833,-1.00487 3.12666,-0.78157 1.22833,0.22331 1.45166,4.24284 0,1.78648 0.67001,2.6797 0.67,0.89324 1.78666,1.33985 l 2.68,1.33984 q 1.56333,0.89324 3.34999,2.45638 1.78667,1.78647 1.22834,3.34962 -0.55833,1.56317 -1.67501,3.01466 -1.11666,1.4515 -2.12166,3.12631 -1.005,1.6748 0.11166,3.23796 1.56334,2.45639 3.35001,3.57292 1.78666,1.11654 3.46166,1.89812 1.67499,0.78158 3.01499,1.78646 1.34,1.00489 1.78666,3.23797 0,0.66992 1.56334,2.56803 1.56333,1.89812 3.01499,3.90789 1.45167,2.00978 2.345,3.34962 0.89333,1.33985 -0.44666,1.11653 2.68,0.44663 5.69499,0.44663 3.015,0 3.90834,-1.11655 l 0.44666,-0.44661 v -0.22331 l 0.67,-0.2233 q 0.44666,-0.22331 1.22834,-0.55827 0.78166,-0.33496 2.12165,-1.45151 2.68,-1.78645 5.13666,-4.68945 2.45667,-2.90302 4.24334,-6.36428 1.78665,-3.46127 3.01499,-7.03419 1.22833,-3.57294 1.67499,-6.69924 0.44668,-2.90301 1.45167,-4.24285 1.005,-1.33985 1.78667,-2.34473 0.78167,-1.00488 1.34,-2.67969 0.55833,-1.67482 -0.11167,-5.69435 -0.67,-5.13608 1.22833,-7.48082 1.89833,-2.34473 3.23834,-3.90788 z m 22.10996,35.05932 q 3.12667,-3.79623 3.23834,-6.25261 0.11166,-2.45638 -5.24833,-3.79624 -5.58333,-1.33985 -7.92833,-1.4515 -2.34499,-0.11166 -4.355,2.34473 -2.00998,2.45639 -2.90332,5.02443 -0.89333,2.56804 0.44666,7.03419 0.67001,2.00977 1.11667,3.23797 0.44667,1.22819 1.11666,1.56315 0.67,0.33496 2.01,0.22331 1.34,-0.11166 3.79666,-0.78158 2.68,-0.66992 5.13666,-3.12631 2.45667,-2.45638 3.57333,-4.01954 z m 6.03,-65.20586 q 1.56333,-1.56316 5.24832,-2.34474 3.685,-0.78158 7.48166,-2.00977 3.79667,-1.2282 6.7,-3.46127 2.90333,-2.23308 3.12666,-6.25262 0.22333,-4.01954 0,-7.36915 -0.22333,-3.34962 -1.34,-6.69925 -1.11666,-3.34961 -3.015,-7.03418 -1.89833,-3.68458 -4.80166,-8.37405 -3.12666,-4.91277 -5.695,-8.26239 -2.56833,-3.34961 -5.02498,-5.69434 -2.45667,-2.34474 -5.13666,-4.24286 -2.68,-1.89811 -6.02999,-3.90788 -3.57334,-2.00977 -7.035,-4.35451 -3.46166,-2.34472 -7.48166,-3.1263 -4.01999,-0.78158 -8.70999,1.00489 -4.68999,1.78645 -10.71999,7.81576 l -3.79666,4.01955 q -2.45666,2.23308 -5.13666,4.24284 -2.68,2.00977 -5.13666,3.46128 -2.45666,1.45149 -4.46666,1.45149 -1.78667,0 -5.58334,0.44662 -3.79665,0.44662 -7.70498,2.23308 -3.90833,1.78646 -6.7,5.02443 -2.79166,3.23796 -2.345,8.59735 0.22334,6.0293 2.12167,7.81577 1.89834,1.78646 4.91333,2.00977 3.015,0.22331 7.14665,0.44662 4.13167,0.2233 8.82167,2.903 5.58333,1.33984 10.49666,2.67969 4.24332,1.11654 8.59832,2.79135 4.35499,1.6748 7.25832,3.46127 3.35,2.00977 2.67999,5.24773 -0.66999,3.23796 -2.34498,6.58758 -1.67501,3.34961 -2.79167,6.47592 -1.11667,3.12631 1.34,4.91278 3.34999,2.45638 4.91333,3.1263 1.56332,0.66992 3.34999,0.33496 1.78667,-0.33496 4.91333,-1.00488 3.12666,-0.66993 9.60332,-0.66993 -1.78666,0 -0.67,-1.33984 1.11666,-1.33985 3.46166,-3.34962 2.345,-2.00976 5.025,-4.13118 2.67999,-2.12143 4.46666,-3.46127 z"
     p-id="2701"
     id="path1"
     style="stroke-width:0.218522;fill-opacity:1;fill:url(#linearGradient30)" /><metadata
     id="metadata30"><rdf:RDF><cc:Work
         rdf:about=""><dc:title>places/512/folder-open</dc:title></cc:Work></rdf:RDF></metadata></svg>
