<?xml version="1.0" encoding="UTF-8"?>
<svg width="512px" height="512px" viewBox="0 0 512 512" version="1.1" xmlns="http://www.w3.org/2000/svg" xmlns:xlink="http://www.w3.org/1999/xlink">
    <title>places/512/user-trash-full</title>
    <defs>
        <filter x="-7.6%" y="-7.6%" width="115.2%" height="115.2%" filterUnits="objectBoundingBox" id="filter-1">
            <feOffset dx="0" dy="0" in="SourceAlpha" result="shadowOffsetOuter1"></feOffset>
            <feGaussianBlur stdDeviation="10" in="shadowOffsetOuter1" result="shadowBlurOuter1"></feGaussianBlur>
            <feColorMatrix values="0 0 0 0 0   0 0 0 0 0   0 0 0 0 0  0 0 0 0.2 0" type="matrix" in="shadowBlurOuter1" result="shadowMatrixOuter1"></feColorMatrix>
            <feMerge>
                <feMergeNode in="shadowMatrixOuter1"></feMergeNode>
                <feMergeNode in="SourceGraphic"></feMergeNode>
            </feMerge>
        </filter>
        <linearGradient x1="50%" y1="0%" x2="50%" y2="182.825172%" id="linearGradient-2">
            <stop stop-color="#EBEBEB" offset="0%"></stop>
            <stop stop-color="#7A859B" offset="100%"></stop>
        </linearGradient>
        <ellipse id="path-3" cx="211.878788" cy="93.7468196" rx="211.878788" ry="44.6060606"></ellipse>
        <filter x="-1.3%" y="-18.5%" width="102.6%" height="124.7%" filterUnits="objectBoundingBox" id="filter-4">
            <feOffset dx="0" dy="-11" in="SourceAlpha" result="shadowOffsetOuter1"></feOffset>
            <feColorMatrix values="0 0 0 0 0.776686197   0 0 0 0 0.829818623   0 0 0 0 0.88002379  0 0 0 1 0" type="matrix" in="shadowOffsetOuter1"></feColorMatrix>
        </filter>
        <linearGradient x1="80.7138213%" y1="19.6061299%" x2="50%" y2="61.8173077%" id="linearGradient-5">
            <stop stop-color="#D6E0F4" offset="0%"></stop>
            <stop stop-color="#DBF0FD" offset="100%"></stop>
            <stop stop-color="#D3E0F1" offset="100%"></stop>
        </linearGradient>
        <linearGradient x1="22.7015645%" y1="7.91174311%" x2="75.8413354%" y2="61.2816645%" id="linearGradient-6">
            <stop stop-color="#B0BCCB" offset="0%"></stop>
            <stop stop-color="#9EB2CA" offset="100%"></stop>
        </linearGradient>
        <circle id="path-7" cx="125.089471" cy="89.2121212" r="89.2121212"></circle>
        <filter x="0.0%" y="0.0%" width="100.0%" height="100.0%" filterUnits="objectBoundingBox" id="filter-8">
            <feOffset dx="0" dy="0" in="SourceAlpha" result="shadowOffsetInner1"></feOffset>
            <feComposite in="shadowOffsetInner1" in2="SourceAlpha" operator="arithmetic" k2="-1" k3="1" result="shadowInnerInner1"></feComposite>
            <feColorMatrix values="0 0 0 0 1   0 0 0 0 1   0 0 0 0 1  0 0 0 0.5 0" type="matrix" in="shadowInnerInner1"></feColorMatrix>
        </filter>
        <path d="M27.5544637,104.682261 C27.5544637,99.1564921 18.3696425,75.4344563 0,33.5161536 L46.0253265,0 L86.5279205,8.18418892 L118.771068,13.3851796 L118.771068,45.2235387 L138.846245,57.7360565 L138.846245,96.3936077 L95.5996903,119.782335 C50.2362059,115.241388 27.5544637,110.20803 27.5544637,104.682261 Z" id="path-9"></path>
        <linearGradient x1="72.7915249%" y1="25.1065525%" x2="33.9648603%" y2="69.4131245%" id="linearGradient-11">
            <stop stop-color="#BFC9D3" offset="0%"></stop>
            <stop stop-color="#B0C5E1" offset="100%"></stop>
        </linearGradient>
        <linearGradient x1="88.8592358%" y1="64.7286411%" x2="11.1105735%" y2="30.7873558%" id="linearGradient-12">
            <stop stop-color="#68819A" offset="0%"></stop>
            <stop stop-color="#8EA9C6" offset="100%"></stop>
        </linearGradient>
        <polygon id="path-13" points="80.5427817 11.259851 20.7640014 110.628449 106.22057 120.957548 170.350219 27.3640577"></polygon>
        <linearGradient x1="38.7740643%" y1="27.2547294%" x2="73.4269925%" y2="73.8071045%" id="linearGradient-14">
            <stop stop-color="#8399AF" offset="0%"></stop>
            <stop stop-color="#607A94" offset="100%"></stop>
        </linearGradient>
        <polygon id="path-15" points="26.2410905 95.2958881 0 24.6723461 35.6966778 15.3167444 73.8366542 -9.97131107e-14 115.817631 10.417402 115.817631 31.1042459 135.892808 43.6167638 135.892808 82.2743149 92.6462534 105.663042"></polygon>
        <linearGradient x1="17.855614%" y1="32.8176976%" x2="75.7896569%" y2="60.4866892%" id="linearGradient-17">
            <stop stop-color="#B1BFCC" offset="0%"></stop>
            <stop stop-color="#8FABC9" offset="100%"></stop>
        </linearGradient>
        <linearGradient x1="22.7015645%" y1="7.91174311%" x2="75.859565%" y2="43.6793933%" id="linearGradient-18">
            <stop stop-color="#B1BFCC" offset="0%"></stop>
            <stop stop-color="#9AB4D0" offset="100%"></stop>
        </linearGradient>
        <circle id="path-19" cx="89.2121212" cy="128.61799" r="89.2121212"></circle>
        <filter x="0.0%" y="0.0%" width="100.0%" height="100.0%" filterUnits="objectBoundingBox" id="filter-20">
            <feOffset dx="0" dy="0" in="SourceAlpha" result="shadowOffsetInner1"></feOffset>
            <feComposite in="shadowOffsetInner1" in2="SourceAlpha" operator="arithmetic" k2="-1" k3="1" result="shadowInnerInner1"></feComposite>
            <feColorMatrix values="0 0 0 0 1   0 0 0 0 1   0 0 0 0 1  0 0 0 0.5 0" type="matrix" in="shadowInnerInner1"></feColorMatrix>
        </filter>
        <radialGradient cx="27.7048929%" cy="10.6803319%" fx="27.7048929%" fy="10.6803319%" r="95.969013%" id="radialGradient-21">
            <stop stop-color="#CBD7E3" offset="0%"></stop>
            <stop stop-color="#B3C8DD" offset="100%"></stop>
        </radialGradient>
        <linearGradient x1="5.62718338%" y1="24.3310219%" x2="100%" y2="50%" id="linearGradient-22">
            <stop stop-color="#F0F7FF" offset="0%"></stop>
            <stop stop-color="#A9C5D9" offset="83.3798857%"></stop>
            <stop stop-color="#EEF7FF" offset="100%"></stop>
        </linearGradient>
        <path d="M423.372974,96.4567994 L423.757576,93.7468196 C400.998006,251.578016 386.715541,345.333116 380.910181,375.01212 C375.104821,404.691124 362.347534,428.985397 342.63832,447.894939 L342.539851,447.895061 L342.539851,447.895061 C321.397021,469.113625 270.859456,484.04985 211.878788,484.04985 C152.904045,484.04985 102.370708,469.116626 81.2196718,447.902588 C81.1281303,447.899746 81.0471801,447.897357 80.9771946,447.894939 C61.4713089,431.123297 48.6103167,407.144764 42.3942181,375.959339 L42.2078854,375.01212 L0.425182165,96.5957599 C7.40343234,119.903509 99.4070414,138.35288 211.878788,138.35288 C324.573961,138.35288 416.719595,119.830136 423.372974,96.4567994 Z" id="path-23"></path>
        <filter x="-1.3%" y="-1.4%" width="102.6%" height="102.8%" filterUnits="objectBoundingBox" id="filter-25">
            <feOffset dx="0" dy="11" in="SourceAlpha" result="shadowOffsetInner1"></feOffset>
            <feComposite in="shadowOffsetInner1" in2="SourceAlpha" operator="arithmetic" k2="-1" k3="1" result="shadowInnerInner1"></feComposite>
            <feColorMatrix values="0 0 0 0 1   0 0 0 0 1   0 0 0 0 1  0 0 0 0.799193482 0" type="matrix" in="shadowInnerInner1"></feColorMatrix>
        </filter>
        <linearGradient x1="9.76460704%" y1="40.729489%" x2="97.6983438%" y2="50%" id="linearGradient-26">
            <stop stop-color="#2DDCFF" offset="0%"></stop>
            <stop stop-color="#0FB5FF" offset="9.99283912%"></stop>
            <stop stop-color="#227AFF" offset="81.0911606%"></stop>
            <stop stop-color="#1DDBFF" offset="100%"></stop>
        </linearGradient>
        <path d="M206.693405,206.58842 C312.579727,206.58842 401.892427,190.270237 429.671472,167.973004 C410.361393,245.489426 397.838264,298.956156 392.096599,328.372316 C396.989793,335.519774 399.612121,343.083687 399.612121,350.910091 C399.612121,395.092871 316.038608,430.910091 212.945455,430.910091 C109.852301,430.910091 26.2787879,395.092871 26.2787879,350.910091 C26.2787879,349.886007 26.3236866,348.866417 26.4126864,347.851663 C24.3595429,342.61579 22.6480559,337.210412 21.2815785,331.636235 L20.9723635,330.34689 L-17.0484007,167.345408 C9.82409536,189.963367 99.8161022,206.58842 206.693405,206.58842 Z M-22.3104487,144.771775 L-25.2282067,132.243424 L-6.5340731,132.242411 C-13.9100824,136.195425 -19.2682177,140.394724 -22.3104487,144.771775 Z M438.615017,132.243424 C437.56888,136.398261 436.539106,140.495069 435.525694,144.533848 C432.458541,140.241343 427.162114,136.123193 419.920883,132.242411 L438.615017,132.243424 Z" id="path-27"></path>
        <filter x="-0.5%" y="-0.8%" width="101.1%" height="101.7%" filterUnits="objectBoundingBox" id="filter-28">
            <feOffset dx="0" dy="3" in="SourceAlpha" result="shadowOffsetInner1"></feOffset>
            <feComposite in="shadowOffsetInner1" in2="SourceAlpha" operator="arithmetic" k2="-1" k3="1" result="shadowInnerInner1"></feComposite>
            <feColorMatrix values="0 0 0 0 0.191256237   0 0 0 0 0.552047062   0 0 0 0 0.999427685  0 0 0 0.404510285 0" type="matrix" in="shadowInnerInner1" result="shadowMatrixInner1"></feColorMatrix>
            <feOffset dx="0" dy="-5" in="SourceAlpha" result="shadowOffsetInner2"></feOffset>
            <feComposite in="shadowOffsetInner2" in2="SourceAlpha" operator="arithmetic" k2="-1" k3="1" result="shadowInnerInner2"></feComposite>
            <feColorMatrix values="0 0 0 0 1   0 0 0 0 1   0 0 0 0 1  0 0 0 0.867462372 0" type="matrix" in="shadowInnerInner2" result="shadowMatrixInner2"></feColorMatrix>
            <feMerge>
                <feMergeNode in="shadowMatrixInner1"></feMergeNode>
                <feMergeNode in="shadowMatrixInner2"></feMergeNode>
            </feMerge>
        </filter>
        <linearGradient x1="22.7015645%" y1="21.4557151%" x2="85.3979351%" y2="54.7609514%" id="linearGradient-29">
            <stop stop-color="#FFFFFF" offset="0%"></stop>
            <stop stop-color="#EDFEFF" offset="27.8116924%"></stop>
            <stop stop-color="#D5FFFF" offset="100%"></stop>
        </linearGradient>
        <path d="M166.10536,258.627628 L184.676277,282.699762 L203.247194,306.729441 L173.784009,302.685577 C173.133276,306.506551 172.742836,310.433662 172.662746,314.456299 C172.092103,347.104396 199.412875,375.411442 226.693603,386.290604 C189.922186,395.131912 138.954779,370.178831 136.772321,322.013335 C136.471983,315.358473 137.272885,300.63711 138.934757,294.523553 L138.934757,294.523553 L115.878788,290.745034 L140.99708,274.675717 L166.10536,258.627628 Z M186.397306,240.942364 C222.226939,230.997277 272.72396,254.831192 276.000822,303.367074 C276.461937,310.086438 276.000822,324.950484 274.529177,331.187597 L274.529177,331.187597 L297.212121,334.359737 L272.979045,351.238521 L248.765591,368.138739 L229.997221,344.358407 L211.228851,320.578075 L240.190811,323.910966 C240.740224,320.010091 241.024742,316.0342 241.00512,311.983291 C240.79909,278.997324 213.377452,251.155368 186.397306,240.942364 Z" id="path-30"></path>
        <filter x="0.0%" y="0.0%" width="100.0%" height="100.0%" filterUnits="objectBoundingBox" id="filter-31">
            <feOffset dx="0" dy="0" in="SourceAlpha" result="shadowOffsetInner1"></feOffset>
            <feComposite in="shadowOffsetInner1" in2="SourceAlpha" operator="arithmetic" k2="-1" k3="1" result="shadowInnerInner1"></feComposite>
            <feColorMatrix values="0 0 0 0 1   0 0 0 0 1   0 0 0 0 1  0 0 0 0.5 0" type="matrix" in="shadowInnerInner1"></feColorMatrix>
        </filter>
    </defs>
    <g id="places/512/user-trash-full" stroke="none" stroke-width="1" fill="none" fill-rule="evenodd">
        <g id="places/user-trash-full" filter="url(#filter-1)">
            <g id="编组" transform="translate(54.787879, 6.616817)">
                <g id="椭圆形">
                    <use fill="black" fill-opacity="1" filter="url(#filter-4)" xlink:href="#path-3"></use>
                    <use fill="url(#linearGradient-2)" fill-rule="evenodd" xlink:href="#path-3"></use>
                </g>
                <g id="编组-18备份-2" transform="translate(26.739690, 0.000000)">
                    <path d="M39.0480527,141.56316 C39.0480527,136.037391 30.8477104,114.07385 14.4470258,75.6725377 L50.1437036,66.3169361 L88.28368,39.8486765 L130.264657,50.2660785 L130.264657,82.1044376 L150.339834,94.6169555 L150.339834,133.274507 L107.093279,156.663234 C61.7297949,152.122287 39.0480527,147.088929 39.0480527,141.56316 Z" id="蒙版" fill="url(#linearGradient-5)" transform="translate(82.393430, 98.255955) scale(-1, 1) translate(-82.393430, -98.255955) "></path>
                    <g id="椭圆形">
                        <use fill="url(#linearGradient-6)" fill-rule="evenodd" xlink:href="#path-7"></use>
                        <use fill="black" fill-opacity="1" filter="url(#filter-8)" xlink:href="#path-7"></use>
                    </g>
                    <g id="编组-14备份" transform="translate(0.000000, 88.109454)">
                        <mask id="mask-10" fill="white">
                            <use xlink:href="#path-9"></use>
                        </mask>
                        <use id="蒙版" fill="#8DA0B3" xlink:href="#path-9"></use>
                        <polygon id="路径-8" fill="#FB616E" mask="url(#mask-10)" points="2.9534369 38.7916388 37.9939597 81.2084721 95.1183241 81.2084721 29.1945274 109.415181"></polygon>
                    </g>
                    <g id="编组-17" transform="translate(163.851798, 20.877807)">
                        <polygon id="路径-12" fill="url(#linearGradient-11)" points="75.5610811 0 0 121.559657 109.954978 134.849868 191.114221 20.720908"></polygon>
                        <g id="路径-12备份">
                            <use fill="#7DA0B0" xlink:href="#path-13"></use>
                            <use fill="url(#linearGradient-12)" xlink:href="#path-13"></use>
                        </g>
                    </g>
                    <g id="编组-14备份" transform="translate(92.507632, 95.606252)" fill="#4F677F">
                        <path d="M24.6010268,101.714483 C24.6010268,96.1887145 16.4006846,74.2251738 0,35.8238612 L35.6966778,26.4682596 L73.8366542,0 L115.817631,10.417402 L115.817631,42.2557611 L135.892808,54.7682789 L135.892808,93.4258301 L92.6462534,116.814557 C47.282769,112.27361 24.6010268,107.240252 24.6010268,101.714483 Z" id="蒙版"></path>
                    </g>
                    <g id="编组-14" transform="translate(84.667364, 52.602746)">
                        <mask id="mask-16" fill="white">
                            <use xlink:href="#path-15"></use>
                        </mask>
                        <use id="蒙版" fill="url(#linearGradient-14)" xlink:href="#path-15"></use>
                        <polygon id="路径-13" fill="#5D7690" mask="url(#mask-16)" points="115.336265 0.651892592 94.3005475 39.4154954 143.126629 42.0937086"></polygon>
                        <polygon id="路径-8" fill="#4F677F" mask="url(#mask-16)" points="0 24.6723461 35.0405228 67.0891793 92.1648872 67.0891793 26.2410905 95.2958881"></polygon>
                    </g>
                    <g id="编组" transform="translate(180.847047, 27.503222)">
                        <path d="M93.5041719,43.9405669 C105.821795,43.9405669 115.807202,33.9551601 115.807202,21.6375366 C115.807202,16.7409376 113.163818,16.5204208 107.877048,20.9759862 L107.877048,20.975986 C99.5730129,27.9744324 87.4353307,27.9744325 79.1312954,20.9759861 C73.8445262,16.5204208 71.2011416,16.7409377 71.2011416,21.6375366 C71.2011416,33.9551601 81.1865484,43.9405669 93.5041719,43.9405669 Z" id="椭圆形" fill="url(#linearGradient-17)"></path>
                        <g id="椭圆形">
                            <use fill="url(#linearGradient-18)" fill-rule="evenodd" xlink:href="#path-19"></use>
                            <use fill="black" fill-opacity="1" filter="url(#filter-20)" xlink:href="#path-19"></use>
                        </g>
                        <circle id="椭圆形" fill="url(#radialGradient-21)" fill-rule="nonzero" cx="48.8981113" cy="88.5466275" r="11.1515152"></circle>
                    </g>
                </g>
                <mask id="mask-24" fill="white">
                    <use xlink:href="#path-23"></use>
                </mask>
                <g id="形状结合">
                    <use fill="url(#linearGradient-22)" fill-rule="evenodd" xlink:href="#path-23"></use>
                    <use fill="black" fill-opacity="1" filter="url(#filter-25)" xlink:href="#path-23"></use>
                </g>
                <g id="形状结合" mask="url(#mask-24)">
                    <use fill="url(#linearGradient-26)" fill-rule="evenodd" xlink:href="#path-27"></use>
                    <use fill="black" fill-opacity="1" filter="url(#filter-28)" xlink:href="#path-27"></use>
                </g>
                <g id="蒙版" mask="url(#mask-24)">
                    <use fill="url(#linearGradient-29)" fill-rule="evenodd" xlink:href="#path-30"></use>
                    <use fill="black" fill-opacity="1" filter="url(#filter-31)" xlink:href="#path-30"></use>
                </g>
            </g>
        </g>
    </g>
</svg>